<svg width="24" height="24" viewBox="0 0 24 24" fill="none" xmlns="http://www.w3.org/2000/svg">
<path d="M10.0427 3.15013L10.0431 3.14982C11.1273 2.27901 12.8675 2.28411 13.968 3.1607C13.9681 3.16081 13.9682 3.16091 13.9684 3.16102L20.514 8.39753C20.5146 8.39799 20.5152 8.39846 20.5157 8.39892C20.893 8.70708 21.2196 9.18939 21.4304 9.74096C21.641 10.2921 21.7196 10.8698 21.6462 11.3509L20.3873 18.8844C20.3872 18.8849 20.3872 18.8854 20.3871 18.8859C20.1374 20.3188 18.7432 21.5 17.3 21.5H6.69996C5.23549 21.5 3.8725 20.3476 3.62294 18.8964C3.62288 18.8961 3.62282 18.8958 3.62276 18.8954L2.36313 11.3576L2.36293 11.3564C2.28079 10.8718 2.35452 10.2929 2.56465 9.74189C2.77476 9.19091 3.10548 8.70906 3.4918 8.40083L3.49267 8.40013L10.0427 3.15013ZM12 19.25C12.6861 19.25 13.25 18.6861 13.25 18V15C13.25 14.3138 12.6861 13.75 12 13.75C11.3138 13.75 10.75 14.3138 10.75 15V18C10.75 18.6861 11.3138 19.25 12 19.25Z" fill="white" stroke="white"/>
</svg>
