<svg width="13" height="13" viewBox="0 0 13 13" fill="none" xmlns="http://www.w3.org/2000/svg">
<path d="M8.125 12.3229H4.875C1.93375 12.3229 0.677078 11.0663 0.677078 8.12501V4.87501C0.677078 1.93376 1.93375 0.677094 4.875 0.677094H5.95833C6.18041 0.677094 6.36458 0.86126 6.36458 1.08334C6.36458 1.30543 6.18041 1.48959 5.95833 1.48959H4.875C2.37791 1.48959 1.48958 2.37793 1.48958 4.87501V8.12501C1.48958 10.6221 2.37791 11.5104 4.875 11.5104H8.125C10.6221 11.5104 11.5104 10.6221 11.5104 8.12501V7.04168C11.5104 6.81959 11.6946 6.63543 11.9167 6.63543C12.1387 6.63543 12.3229 6.81959 12.3229 7.04168V8.12501C12.3229 11.0663 11.0662 12.3229 8.125 12.3229Z" fill="#2591FC"/>
<path d="M4.60416 9.58208C4.27374 9.58208 3.97041 9.46292 3.74833 9.24625C3.48291 8.98083 3.36916 8.59625 3.42874 8.19L3.66166 6.55958C3.70499 6.24542 3.91083 5.83917 4.13291 5.61708L8.40124 1.34875C9.47916 0.270835 10.5733 0.270835 11.6512 1.34875C12.2417 1.93917 12.5071 2.54042 12.4529 3.14167C12.4042 3.62917 12.1442 4.10583 11.6512 4.59333L7.38291 8.86167C7.16083 9.08375 6.75458 9.28958 6.44041 9.33292L4.80999 9.56583C4.73958 9.58208 4.66916 9.58208 4.60416 9.58208ZM8.97541 1.92292L4.70708 6.19125C4.60416 6.29417 4.48499 6.5325 4.46333 6.67333L4.23041 8.30375C4.20874 8.46083 4.24124 8.59083 4.32249 8.67208C4.40374 8.75333 4.53374 8.78583 4.69083 8.76417L6.32124 8.53125C6.46208 8.50958 6.70583 8.39042 6.80333 8.2875L11.0717 4.01917C11.4237 3.66708 11.6079 3.35292 11.635 3.06042C11.6675 2.70833 11.4833 2.33458 11.0717 1.9175C10.205 1.05083 9.60916 1.29458 8.97541 1.92292Z" fill="#2591FC"/>
<path d="M10.7521 5.32459C10.7142 5.32459 10.6762 5.31917 10.6437 5.30834C9.21916 4.9075 8.08708 3.77542 7.68624 2.35084C7.62666 2.13417 7.75124 1.91209 7.96791 1.84709C8.18458 1.7875 8.40666 1.91209 8.46625 2.12875C8.79125 3.2825 9.70666 4.19792 10.8604 4.52292C11.0771 4.5825 11.2017 4.81 11.1421 5.02667C11.0933 5.21084 10.9308 5.32459 10.7521 5.32459Z" fill="#2591FC"/>
</svg>
