<svg width="21" height="21" viewBox="0 0 21 21" fill="none" xmlns="http://www.w3.org/2000/svg">
<path d="M7.875 4.37501C7.64294 4.37501 7.42038 4.4672 7.25628 4.63129C7.09219 4.79538 7 5.01794 7 5.25001C7 5.48207 7.09219 5.70463 7.25628 5.86873C7.42038 6.03282 7.64294 6.12501 7.875 6.12501C8.10706 6.12501 8.32962 6.03282 8.49372 5.86873C8.65781 5.70463 8.75 5.48207 8.75 5.25001C8.75 5.01794 8.65781 4.79538 8.49372 4.63129C8.32962 4.4672 8.10706 4.37501 7.875 4.37501ZM5.39875 4.37501C5.57953 3.86267 5.91477 3.41901 6.35827 3.1052C6.80178 2.79139 7.3317 2.62286 7.875 2.62286C8.4183 2.62286 8.94822 2.79139 9.39173 3.1052C9.83523 3.41901 10.1705 3.86267 10.3512 4.37501H16.625C16.8571 4.37501 17.0796 4.4672 17.2437 4.63129C17.4078 4.79538 17.5 5.01794 17.5 5.25001C17.5 5.48207 17.4078 5.70463 17.2437 5.86873C17.0796 6.03282 16.8571 6.12501 16.625 6.12501H10.3512C10.1705 6.63735 9.83523 7.081 9.39173 7.39482C8.94822 7.70863 8.4183 7.87715 7.875 7.87715C7.3317 7.87715 6.80178 7.70863 6.35827 7.39482C5.91477 7.081 5.57953 6.63735 5.39875 6.12501H4.375C4.14294 6.12501 3.92038 6.03282 3.75628 5.86873C3.59219 5.70463 3.5 5.48207 3.5 5.25001C3.5 5.01794 3.59219 4.79538 3.75628 4.63129C3.92038 4.4672 4.14294 4.37501 4.375 4.37501H5.39875ZM13.125 9.62501C12.8929 9.62501 12.6704 9.7172 12.5063 9.88129C12.3422 10.0454 12.25 10.2679 12.25 10.5C12.25 10.7321 12.3422 10.9546 12.5063 11.1187C12.6704 11.2828 12.8929 11.375 13.125 11.375C13.3571 11.375 13.5796 11.2828 13.7437 11.1187C13.9078 10.9546 14 10.7321 14 10.5C14 10.2679 13.9078 10.0454 13.7437 9.88129C13.5796 9.7172 13.3571 9.62501 13.125 9.62501ZM10.6487 9.62501C10.8295 9.11267 11.1648 8.66901 11.6083 8.3552C12.0518 8.04138 12.5817 7.87286 13.125 7.87286C13.6683 7.87286 14.1982 8.04138 14.6417 8.3552C15.0852 8.66901 15.4205 9.11267 15.6012 9.62501H16.625C16.8571 9.62501 17.0796 9.7172 17.2437 9.88129C17.4078 10.0454 17.5 10.2679 17.5 10.5C17.5 10.7321 17.4078 10.9546 17.2437 11.1187C17.0796 11.2828 16.8571 11.375 16.625 11.375H15.6012C15.4205 11.8874 15.0852 12.331 14.6417 12.6448C14.1982 12.9586 13.6683 13.1272 13.125 13.1272C12.5817 13.1272 12.0518 12.9586 11.6083 12.6448C11.1648 12.331 10.8295 11.8874 10.6487 11.375H4.375C4.14294 11.375 3.92038 11.2828 3.75628 11.1187C3.59219 10.9546 3.5 10.7321 3.5 10.5C3.5 10.2679 3.59219 10.0454 3.75628 9.88129C3.92038 9.7172 4.14294 9.62501 4.375 9.62501H10.6487ZM7.875 14.875C7.64294 14.875 7.42038 14.9672 7.25628 15.1313C7.09219 15.2954 7 15.5179 7 15.75C7 15.9821 7.09219 16.2046 7.25628 16.3687C7.42038 16.5328 7.64294 16.625 7.875 16.625C8.10706 16.625 8.32962 16.5328 8.49372 16.3687C8.65781 16.2046 8.75 15.9821 8.75 15.75C8.75 15.5179 8.65781 15.2954 8.49372 15.1313C8.32962 14.9672 8.10706 14.875 7.875 14.875ZM5.39875 14.875C5.57953 14.3627 5.91477 13.919 6.35827 13.6052C6.80178 13.2914 7.3317 13.1229 7.875 13.1229C8.4183 13.1229 8.94822 13.2914 9.39173 13.6052C9.83523 13.919 10.1705 14.3627 10.3512 14.875H16.625C16.8571 14.875 17.0796 14.9672 17.2437 15.1313C17.4078 15.2954 17.5 15.5179 17.5 15.75C17.5 15.9821 17.4078 16.2046 17.2437 16.3687C17.0796 16.5328 16.8571 16.625 16.625 16.625H10.3512C10.1705 17.1374 9.83523 17.581 9.39173 17.8948C8.94822 18.2086 8.4183 18.3772 7.875 18.3772C7.3317 18.3772 6.80178 18.2086 6.35827 17.8948C5.91477 17.581 5.57953 17.1374 5.39875 16.625H4.375C4.14294 16.625 3.92038 16.5328 3.75628 16.3687C3.59219 16.2046 3.5 15.9821 3.5 15.75C3.5 15.5179 3.59219 15.2954 3.75628 15.1313C3.92038 14.9672 4.14294 14.875 4.375 14.875H5.39875Z" fill="white"/>
</svg>
