<svg width="27" height="27" viewBox="0 0 27 27" fill="none" xmlns="http://www.w3.org/2000/svg">
<path d="M24.4688 7.59375V19.4062C24.4688 20.0776 24.2021 20.7214 23.7274 21.1961C23.2527 21.6708 22.6088 21.9375 21.9375 21.9375H5.0625C4.39117 21.9375 3.74734 21.6708 3.27264 21.1961C2.79793 20.7214 2.53125 20.0776 2.53125 19.4062V7.59375M24.4688 7.59375C24.4688 6.92242 24.2021 6.27859 23.7274 5.80389C23.2527 5.32918 22.6088 5.0625 21.9375 5.0625H5.0625C4.39117 5.0625 3.74734 5.32918 3.27264 5.80389C2.79793 6.27859 2.53125 6.92242 2.53125 7.59375M24.4688 7.59375V7.86713C24.4688 8.29929 24.3582 8.72427 24.1475 9.10158C23.9368 9.4789 23.633 9.79598 23.265 10.0226L14.8275 15.2145C14.4284 15.4604 13.9688 15.5905 13.5 15.5905C13.0312 15.5905 12.5716 15.4604 12.1725 15.2145L3.735 10.0237C3.36704 9.7971 3.06323 9.48002 2.85252 9.10271C2.6418 8.72539 2.5312 8.30041 2.53125 7.86825V7.59375" stroke="#292D32" stroke-width="1.5" stroke-linecap="round" stroke-linejoin="round"/>
</svg>
