<svg width="28" height="29" viewBox="0 0 28 29" fill="none" xmlns="http://www.w3.org/2000/svg">
<path d="M14 8.01334V11.8983" stroke="#292D32" stroke-width="1.5" stroke-miterlimit="10" stroke-linecap="round"/>
<path d="M14.0233 2.83334C9.73 2.83334 6.25333 6.31001 6.25333 10.6033V13.0533C6.25333 13.8467 5.92667 15.0367 5.51833 15.7133L4.03667 18.1867C3.12667 19.715 3.75667 21.4183 5.43667 21.9783C11.0133 23.8333 17.045 23.8333 22.6217 21.9783C24.1967 21.4533 24.8733 19.61 24.0217 18.1867L22.54 15.7133C22.1317 15.0367 21.805 13.835 21.805 13.0533V10.6033C21.7933 6.33334 18.2933 2.83334 14.0233 2.83334Z" stroke="#292D32" stroke-width="1.5" stroke-miterlimit="10" stroke-linecap="round"/>
<path d="M17.885 22.4567C17.885 24.5917 16.135 26.3417 14 26.3417C12.9383 26.3417 11.9583 25.8983 11.2583 25.1983C10.5583 24.4983 10.115 23.5183 10.115 22.4567" stroke="#292D32" stroke-width="1.5" stroke-miterlimit="10"/>
</svg>
