<svg width="44" height="44" viewBox="0 0 44 44" fill="none" xmlns="http://www.w3.org/2000/svg">
<rect width="44" height="44" rx="22" fill="white"/>
<path d="M16.7599 32H27.2399C29.9999 32 31.0999 30.31 31.2299 28.25L31.7499 19.99C31.8899 17.83 30.1699 16 27.9999 16C27.3899 16 26.8299 15.65 26.5499 15.11L25.8299 13.66C25.3699 12.75 24.1699 12 23.1499 12H20.8599C19.8299 12 18.6299 12.75 18.1699 13.66L17.4499 15.11C17.1699 15.65 16.6099 16 15.9999 16C13.8299 16 12.1099 17.83 12.2499 19.99L12.7699 28.25C12.8899 30.31 13.9999 32 16.7599 32Z" stroke="#292D32" stroke-width="1.5" stroke-linecap="round" stroke-linejoin="round"/>
<path d="M20.5 18H23.5" stroke="#292D32" stroke-width="1.5" stroke-linecap="round" stroke-linejoin="round"/>
<path d="M22 28C23.79 28 25.25 26.54 25.25 24.75C25.25 22.96 23.79 21.5 22 21.5C20.21 21.5 18.75 22.96 18.75 24.75C18.75 26.54 20.21 28 22 28Z" stroke="#292D32" stroke-width="1.5" stroke-linecap="round" stroke-linejoin="round"/>
</svg>
