<svg width="13" height="13" viewBox="0 0 13 13" fill="none" xmlns="http://www.w3.org/2000/svg">
<g id="trash">
<g id="vuesax/outline/trash">
<g id="trash_2">
<g id="Vector">
<mask id="path-1-inside-1_135_222" fill="white">
<path d="M11.375 3.64541C11.3642 3.64541 11.3479 3.64541 11.3317 3.64541C8.46624 3.35833 5.60624 3.25 2.77332 3.53708L1.66832 3.64541C1.44082 3.66708 1.2404 3.50458 1.21873 3.27708C1.19707 3.04958 1.35957 2.85458 1.58165 2.83291L2.68665 2.72458C5.56832 2.43208 8.4879 2.54583 11.4129 2.83291C11.635 2.85458 11.7975 3.055 11.7758 3.27708C11.7596 3.48833 11.5808 3.64541 11.375 3.64541Z"/>
</mask>
<path d="M11.375 3.64541C11.3642 3.64541 11.3479 3.64541 11.3317 3.64541C8.46624 3.35833 5.60624 3.25 2.77332 3.53708L1.66832 3.64541C1.44082 3.66708 1.2404 3.50458 1.21873 3.27708C1.19707 3.04958 1.35957 2.85458 1.58165 2.83291L2.68665 2.72458C5.56832 2.43208 8.4879 2.54583 11.4129 2.83291C11.635 2.85458 11.7975 3.055 11.7758 3.27708C11.7596 3.48833 11.5808 3.64541 11.375 3.64541Z" fill="#292D32"/>
<path d="M11.3317 3.64541L11.232 4.64043L11.2817 4.64541H11.3317V3.64541ZM2.77332 3.53708L2.87089 4.53231L2.87414 4.53199L2.77332 3.53708ZM1.66832 3.64541L1.76313 4.64091L1.76589 4.64064L1.66832 3.64541ZM1.58165 2.83291L1.67875 3.82819L1.67922 3.82814L1.58165 2.83291ZM2.68665 2.72458L2.78422 3.71982L2.78764 3.71947L2.68665 2.72458ZM11.4129 2.83291L11.3152 3.82813L11.3158 3.82819L11.4129 2.83291ZM11.7758 3.27708L10.7805 3.17998L10.7795 3.19017L10.7788 3.20038L11.7758 3.27708ZM11.375 2.64541C11.375 2.64541 11.3749 2.64541 11.3749 2.64541C11.3749 2.64541 11.3749 2.64541 11.3749 2.64541C11.3748 2.64541 11.3748 2.64541 11.3748 2.64541C11.3748 2.64541 11.3748 2.64541 11.3747 2.64541C11.3747 2.64541 11.3747 2.64541 11.3747 2.64541C11.3746 2.64541 11.3746 2.64541 11.3746 2.64541C11.3746 2.64541 11.3746 2.64541 11.3745 2.64541C11.3745 2.64541 11.3745 2.64541 11.3745 2.64541C11.3745 2.64541 11.3744 2.64541 11.3744 2.64541C11.3744 2.64541 11.3744 2.64541 11.3743 2.64541C11.3743 2.64541 11.3743 2.64541 11.3743 2.64541C11.3743 2.64541 11.3742 2.64541 11.3742 2.64541C11.3742 2.64541 11.3742 2.64541 11.3742 2.64541C11.3741 2.64541 11.3741 2.64541 11.3741 2.64541C11.3741 2.64541 11.374 2.64541 11.374 2.64541C11.374 2.64541 11.374 2.64541 11.374 2.64541C11.3739 2.64541 11.3739 2.64541 11.3739 2.64541C11.3739 2.64541 11.3738 2.64541 11.3738 2.64541C11.3738 2.64541 11.3738 2.64541 11.3738 2.64541C11.3737 2.64541 11.3737 2.64541 11.3737 2.64541C11.3737 2.64541 11.3736 2.64541 11.3736 2.64541C11.3736 2.64541 11.3736 2.64541 11.3736 2.64541C11.3735 2.64541 11.3735 2.64541 11.3735 2.64541C11.3735 2.64541 11.3734 2.64541 11.3734 2.64541C11.3734 2.64541 11.3734 2.64541 11.3734 2.64541C11.3733 2.64541 11.3733 2.64541 11.3733 2.64541C11.3733 2.64541 11.3732 2.64541 11.3732 2.64541C11.3732 2.64541 11.3732 2.64541 11.3732 2.64541C11.3731 2.64541 11.3731 2.64541 11.3731 2.64541C11.3731 2.64541 11.373 2.64541 11.373 2.64541C11.373 2.64541 11.373 2.64541 11.373 2.64541C11.3729 2.64541 11.3729 2.64541 11.3729 2.64541C11.3729 2.64541 11.3728 2.64541 11.3728 2.64541C11.3728 2.64541 11.3728 2.64541 11.3728 2.64541C11.3727 2.64541 11.3727 2.64541 11.3727 2.64541C11.3727 2.64541 11.3726 2.64541 11.3726 2.64541C11.3726 2.64541 11.3726 2.64541 11.3726 2.64541C11.3725 2.64541 11.3725 2.64541 11.3725 2.64541C11.3725 2.64541 11.3724 2.64541 11.3724 2.64541C11.3724 2.64541 11.3724 2.64541 11.3723 2.64541C11.3723 2.64541 11.3723 2.64541 11.3723 2.64541C11.3723 2.64541 11.3722 2.64541 11.3722 2.64541C11.3722 2.64541 11.3722 2.64541 11.3721 2.64541C11.3721 2.64541 11.3721 2.64541 11.3721 2.64541C11.3721 2.64541 11.372 2.64541 11.372 2.64541C11.372 2.64541 11.372 2.64541 11.3719 2.64541C11.3719 2.64541 11.3719 2.64541 11.3719 2.64541C11.3718 2.64541 11.3718 2.64541 11.3718 2.64541C11.3718 2.64541 11.3718 2.64541 11.3717 2.64541C11.3717 2.64541 11.3717 2.64541 11.3717 2.64541C11.3716 2.64541 11.3716 2.64541 11.3716 2.64541C11.3716 2.64541 11.3715 2.64541 11.3715 2.64541C11.3715 2.64541 11.3715 2.64541 11.3715 2.64541C11.3714 2.64541 11.3714 2.64541 11.3714 2.64541C11.3714 2.64541 11.3713 2.64541 11.3713 2.64541C11.3713 2.64541 11.3713 2.64541 11.3712 2.64541C11.3712 2.64541 11.3712 2.64541 11.3712 2.64541C11.3712 2.64541 11.3711 2.64541 11.3711 2.64541C11.3711 2.64541 11.3711 2.64541 11.371 2.64541C11.371 2.64541 11.371 2.64541 11.371 2.64541C11.3709 2.64541 11.3709 2.64541 11.3709 2.64541C11.3709 2.64541 11.3708 2.64541 11.3708 2.64541C11.3708 2.64541 11.3708 2.64541 11.3708 2.64541C11.3707 2.64541 11.3707 2.64541 11.3707 2.64541C11.3707 2.64541 11.3706 2.64541 11.3706 2.64541C11.3706 2.64541 11.3706 2.64541 11.3705 2.64541C11.3705 2.64541 11.3705 2.64541 11.3705 2.64541C11.3704 2.64541 11.3704 2.64541 11.3704 2.64541C11.3704 2.64541 11.3703 2.64541 11.3703 2.64541C11.3703 2.64541 11.3703 2.64541 11.3703 2.64541C11.3702 2.64541 11.3702 2.64541 11.3702 2.64541C11.3702 2.64541 11.3701 2.64541 11.3701 2.64541C11.3701 2.64541 11.3701 2.64541 11.37 2.64541C11.37 2.64541 11.37 2.64541 11.37 2.64541C11.3699 2.64541 11.3699 2.64541 11.3699 2.64541C11.3699 2.64541 11.3698 2.64541 11.3698 2.64541C11.3698 2.64541 11.3698 2.64541 11.3697 2.64541C11.3697 2.64541 11.3697 2.64541 11.3697 2.64541C11.3697 2.64541 11.3696 2.64541 11.3696 2.64541C11.3696 2.64541 11.3696 2.64541 11.3695 2.64541C11.3695 2.64541 11.3695 2.64541 11.3695 2.64541C11.3694 2.64541 11.3694 2.64541 11.3694 2.64541C11.3694 2.64541 11.3693 2.64541 11.3693 2.64541C11.3693 2.64541 11.3693 2.64541 11.3692 2.64541C11.3692 2.64541 11.3692 2.64541 11.3692 2.64541C11.3691 2.64541 11.3691 2.64541 11.3691 2.64541C11.3691 2.64541 11.369 2.64541 11.369 2.64541C11.369 2.64541 11.369 2.64541 11.3689 2.64541C11.3689 2.64541 11.3689 2.64541 11.3689 2.64541C11.3688 2.64541 11.3688 2.64541 11.3688 2.64541C11.3688 2.64541 11.3688 2.64541 11.3687 2.64541C11.3687 2.64541 11.3687 2.64541 11.3687 2.64541C11.3686 2.64541 11.3686 2.64541 11.3686 2.64541C11.3686 2.64541 11.3685 2.64541 11.3685 2.64541C11.3685 2.64541 11.3685 2.64541 11.3684 2.64541C11.3684 2.64541 11.3684 2.64541 11.3684 2.64541C11.3683 2.64541 11.3683 2.64541 11.3683 2.64541C11.3683 2.64541 11.3682 2.64541 11.3682 2.64541C11.3682 2.64541 11.3682 2.64541 11.3681 2.64541C11.3681 2.64541 11.3681 2.64541 11.3681 2.64541C11.368 2.64541 11.368 2.64541 11.368 2.64541C11.368 2.64541 11.3679 2.64541 11.3679 2.64541C11.3679 2.64541 11.3679 2.64541 11.3678 2.64541C11.3678 2.64541 11.3678 2.64541 11.3678 2.64541C11.3677 2.64541 11.3677 2.64541 11.3677 2.64541C11.3677 2.64541 11.3676 2.64541 11.3676 2.64541C11.3676 2.64541 11.3676 2.64541 11.3675 2.64541C11.3675 2.64541 11.3675 2.64541 11.3675 2.64541C11.3674 2.64541 11.3674 2.64541 11.3674 2.64541C11.3674 2.64541 11.3673 2.64541 11.3673 2.64541C11.3673 2.64541 11.3673 2.64541 11.3672 2.64541C11.3672 2.64541 11.3672 2.64541 11.3672 2.64541C11.3671 2.64541 11.3671 2.64541 11.3671 2.64541C11.3671 2.64541 11.367 2.64541 11.367 2.64541C11.367 2.64541 11.367 2.64541 11.3669 2.64541C11.3669 2.64541 11.3669 2.64541 11.3669 2.64541C11.3668 2.64541 11.3668 2.64541 11.3668 2.64541C11.3667 2.64541 11.3667 2.64541 11.3667 2.64541C11.3667 2.64541 11.3666 2.64541 11.3666 2.64541C11.3666 2.64541 11.3666 2.64541 11.3665 2.64541C11.3665 2.64541 11.3665 2.64541 11.3665 2.64541C11.3664 2.64541 11.3664 2.64541 11.3664 2.64541C11.3664 2.64541 11.3663 2.64541 11.3663 2.64541C11.3663 2.64541 11.3663 2.64541 11.3662 2.64541C11.3662 2.64541 11.3662 2.64541 11.3662 2.64541C11.3661 2.64541 11.3661 2.64541 11.3661 2.64541C11.3661 2.64541 11.366 2.64541 11.366 2.64541C11.366 2.64541 11.366 2.64541 11.3659 2.64541C11.3659 2.64541 11.3659 2.64541 11.3659 2.64541C11.3658 2.64541 11.3658 2.64541 11.3658 2.64541C11.3657 2.64541 11.3657 2.64541 11.3657 2.64541C11.3657 2.64541 11.3656 2.64541 11.3656 2.64541C11.3656 2.64541 11.3656 2.64541 11.3655 2.64541C11.3655 2.64541 11.3655 2.64541 11.3655 2.64541C11.3654 2.64541 11.3654 2.64541 11.3654 2.64541C11.3654 2.64541 11.3653 2.64541 11.3653 2.64541C11.3653 2.64541 11.3653 2.64541 11.3652 2.64541C11.3652 2.64541 11.3652 2.64541 11.3652 2.64541C11.3651 2.64541 11.3651 2.64541 11.3651 2.64541C11.365 2.64541 11.365 2.64541 11.365 2.64541C11.365 2.64541 11.3649 2.64541 11.3649 2.64541C11.3649 2.64541 11.3649 2.64541 11.3648 2.64541C11.3648 2.64541 11.3648 2.64541 11.3648 2.64541C11.3647 2.64541 11.3647 2.64541 11.3647 2.64541C11.3647 2.64541 11.3646 2.64541 11.3646 2.64541C11.3646 2.64541 11.3645 2.64541 11.3645 2.64541C11.3645 2.64541 11.3645 2.64541 11.3644 2.64541C11.3644 2.64541 11.3644 2.64541 11.3644 2.64541C11.3643 2.64541 11.3643 2.64541 11.3643 2.64541C11.3643 2.64541 11.3642 2.64541 11.3642 2.64541C11.3642 2.64541 11.3642 2.64541 11.3641 2.64541C11.3641 2.64541 11.3641 2.64541 11.364 2.64541C11.364 2.64541 11.364 2.64541 11.364 2.64541C11.3639 2.64541 11.3639 2.64541 11.3639 2.64541C11.3639 2.64541 11.3638 2.64541 11.3638 2.64541C11.3638 2.64541 11.3638 2.64541 11.3637 2.64541C11.3637 2.64541 11.3637 2.64541 11.3636 2.64541C11.3636 2.64541 11.3636 2.64541 11.3636 2.64541C11.3635 2.64541 11.3635 2.64541 11.3635 2.64541C11.3635 2.64541 11.3634 2.64541 11.3634 2.64541C11.3634 2.64541 11.3634 2.64541 11.3633 2.64541C11.3633 2.64541 11.3633 2.64541 11.3632 2.64541C11.3632 2.64541 11.3632 2.64541 11.3632 2.64541C11.3631 2.64541 11.3631 2.64541 11.3631 2.64541C11.3631 2.64541 11.363 2.64541 11.363 2.64541C11.363 2.64541 11.363 2.64541 11.3629 2.64541C11.3629 2.64541 11.3629 2.64541 11.3628 2.64541C11.3628 2.64541 11.3628 2.64541 11.3628 2.64541C11.3627 2.64541 11.3627 2.64541 11.3627 2.64541C11.3627 2.64541 11.3626 2.64541 11.3626 2.64541C11.3626 2.64541 11.3625 2.64541 11.3625 2.64541C11.3625 2.64541 11.3625 2.64541 11.3624 2.64541C11.3624 2.64541 11.3624 2.64541 11.3624 2.64541C11.3623 2.64541 11.3623 2.64541 11.3623 2.64541C11.3622 2.64541 11.3622 2.64541 11.3622 2.64541C11.3622 2.64541 11.3621 2.64541 11.3621 2.64541C11.3621 2.64541 11.3621 2.64541 11.362 2.64541C11.362 2.64541 11.362 2.64541 11.3619 2.64541C11.3619 2.64541 11.3619 2.64541 11.3619 2.64541C11.3618 2.64541 11.3618 2.64541 11.3618 2.64541C11.3618 2.64541 11.3617 2.64541 11.3617 2.64541C11.3617 2.64541 11.3617 2.64541 11.3616 2.64541C11.3616 2.64541 11.3616 2.64541 11.3615 2.64541C11.3615 2.64541 11.3615 2.64541 11.3615 2.64541C11.3614 2.64541 11.3614 2.64541 11.3614 2.64541C11.3613 2.64541 11.3613 2.64541 11.3613 2.64541C11.3613 2.64541 11.3612 2.64541 11.3612 2.64541C11.3612 2.64541 11.3612 2.64541 11.3611 2.64541C11.3611 2.64541 11.3611 2.64541 11.361 2.64541C11.361 2.64541 11.361 2.64541 11.361 2.64541C11.3609 2.64541 11.3609 2.64541 11.3609 2.64541C11.3609 2.64541 11.3608 2.64541 11.3608 2.64541C11.3608 2.64541 11.3607 2.64541 11.3607 2.64541C11.3607 2.64541 11.3607 2.64541 11.3606 2.64541C11.3606 2.64541 11.3606 2.64541 11.3605 2.64541C11.3605 2.64541 11.3605 2.64541 11.3605 2.64541C11.3604 2.64541 11.3604 2.64541 11.3604 2.64541C11.3604 2.64541 11.3603 2.64541 11.3603 2.64541C11.3603 2.64541 11.3602 2.64541 11.3602 2.64541C11.3602 2.64541 11.3602 2.64541 11.3601 2.64541C11.3601 2.64541 11.3601 2.64541 11.3601 2.64541C11.36 2.64541 11.36 2.64541 11.36 2.64541C11.3599 2.64541 11.3599 2.64541 11.3599 2.64541C11.3599 2.64541 11.3598 2.64541 11.3598 2.64541C11.3598 2.64541 11.3597 2.64541 11.3597 2.64541C11.3597 2.64541 11.3597 2.64541 11.3596 2.64541C11.3596 2.64541 11.3596 2.64541 11.3595 2.64541C11.3595 2.64541 11.3595 2.64541 11.3595 2.64541C11.3594 2.64541 11.3594 2.64541 11.3594 2.64541C11.3594 2.64541 11.3593 2.64541 11.3593 2.64541C11.3593 2.64541 11.3592 2.64541 11.3592 2.64541C11.3592 2.64541 11.3592 2.64541 11.3591 2.64541C11.3591 2.64541 11.3591 2.64541 11.359 2.64541C11.359 2.64541 11.359 2.64541 11.359 2.64541C11.3589 2.64541 11.3589 2.64541 11.3589 2.64541C11.3588 2.64541 11.3588 2.64541 11.3588 2.64541C11.3588 2.64541 11.3587 2.64541 11.3587 2.64541C11.3587 2.64541 11.3586 2.64541 11.3586 2.64541C11.3586 2.64541 11.3586 2.64541 11.3585 2.64541C11.3585 2.64541 11.3585 2.64541 11.3584 2.64541C11.3584 2.64541 11.3584 2.64541 11.3584 2.64541C11.3583 2.64541 11.3583 2.64541 11.3583 2.64541C11.3583 2.64541 11.3582 2.64541 11.3582 2.64541C11.3582 2.64541 11.3581 2.64541 11.3581 2.64541C11.3581 2.64541 11.3581 2.64541 11.358 2.64541C11.358 2.64541 11.358 2.64541 11.3579 2.64541C11.3579 2.64541 11.3579 2.64541 11.3579 2.64541C11.3578 2.64541 11.3578 2.64541 11.3578 2.64541C11.3577 2.64541 11.3577 2.64541 11.3577 2.64541C11.3577 2.64541 11.3576 2.64541 11.3576 2.64541C11.3576 2.64541 11.3575 2.64541 11.3575 2.64541C11.3575 2.64541 11.3575 2.64541 11.3574 2.64541C11.3574 2.64541 11.3574 2.64541 11.3573 2.64541C11.3573 2.64541 11.3573 2.64541 11.3573 2.64541C11.3572 2.64541 11.3572 2.64541 11.3572 2.64541C11.3571 2.64541 11.3571 2.64541 11.3571 2.64541C11.3571 2.64541 11.357 2.64541 11.357 2.64541C11.357 2.64541 11.3569 2.64541 11.3569 2.64541C11.3569 2.64541 11.3569 2.64541 11.3568 2.64541C11.3568 2.64541 11.3568 2.64541 11.3567 2.64541C11.3567 2.64541 11.3567 2.64541 11.3567 2.64541C11.3566 2.64541 11.3566 2.64541 11.3566 2.64541C11.3565 2.64541 11.3565 2.64541 11.3565 2.64541C11.3565 2.64541 11.3564 2.64541 11.3564 2.64541C11.3564 2.64541 11.3563 2.64541 11.3563 2.64541C11.3563 2.64541 11.3562 2.64541 11.3562 2.64541C11.3562 2.64541 11.3562 2.64541 11.3561 2.64541C11.3561 2.64541 11.3561 2.64541 11.356 2.64541C11.356 2.64541 11.356 2.64541 11.356 2.64541C11.3559 2.64541 11.3559 2.64541 11.3559 2.64541C11.3558 2.64541 11.3558 2.64541 11.3558 2.64541C11.3558 2.64541 11.3557 2.64541 11.3557 2.64541C11.3557 2.64541 11.3556 2.64541 11.3556 2.64541C11.3556 2.64541 11.3556 2.64541 11.3555 2.64541C11.3555 2.64541 11.3555 2.64541 11.3554 2.64541C11.3554 2.64541 11.3554 2.64541 11.3554 2.64541C11.3553 2.64541 11.3553 2.64541 11.3553 2.64541C11.3552 2.64541 11.3552 2.64541 11.3552 2.64541C11.3551 2.64541 11.3551 2.64541 11.3551 2.64541C11.3551 2.64541 11.355 2.64541 11.355 2.64541C11.355 2.64541 11.3549 2.64541 11.3549 2.64541C11.3549 2.64541 11.3549 2.64541 11.3548 2.64541C11.3548 2.64541 11.3548 2.64541 11.3547 2.64541C11.3547 2.64541 11.3547 2.64541 11.3546 2.64541C11.3546 2.64541 11.3546 2.64541 11.3546 2.64541C11.3545 2.64541 11.3545 2.64541 11.3545 2.64541C11.3544 2.64541 11.3544 2.64541 11.3544 2.64541C11.3544 2.64541 11.3543 2.64541 11.3543 2.64541C11.3543 2.64541 11.3542 2.64541 11.3542 2.64541C11.3542 2.64541 11.3542 2.64541 11.3541 2.64541C11.3541 2.64541 11.3541 2.64541 11.354 2.64541C11.354 2.64541 11.354 2.64541 11.3539 2.64541C11.3539 2.64541 11.3539 2.64541 11.3539 2.64541C11.3538 2.64541 11.3538 2.64541 11.3538 2.64541C11.3537 2.64541 11.3537 2.64541 11.3537 2.64541C11.3537 2.64541 11.3536 2.64541 11.3536 2.64541C11.3536 2.64541 11.3535 2.64541 11.3535 2.64541C11.3535 2.64541 11.3534 2.64541 11.3534 2.64541C11.3534 2.64541 11.3534 2.64541 11.3533 2.64541C11.3533 2.64541 11.3533 2.64541 11.3532 2.64541C11.3532 2.64541 11.3532 2.64541 11.3531 2.64541C11.3531 2.64541 11.3531 2.64541 11.3531 2.64541C11.353 2.64541 11.353 2.64541 11.353 2.64541C11.3529 2.64541 11.3529 2.64541 11.3529 2.64541C11.3529 2.64541 11.3528 2.64541 11.3528 2.64541C11.3528 2.64541 11.3527 2.64541 11.3527 2.64541C11.3527 2.64541 11.3526 2.64541 11.3526 2.64541C11.3526 2.64541 11.3526 2.64541 11.3525 2.64541C11.3525 2.64541 11.3525 2.64541 11.3524 2.64541C11.3524 2.64541 11.3524 2.64541 11.3523 2.64541C11.3523 2.64541 11.3523 2.64541 11.3523 2.64541C11.3522 2.64541 11.3522 2.64541 11.3522 2.64541C11.3521 2.64541 11.3521 2.64541 11.3521 2.64541C11.3521 2.64541 11.352 2.64541 11.352 2.64541C11.352 2.64541 11.3519 2.64541 11.3519 2.64541C11.3519 2.64541 11.3518 2.64541 11.3518 2.64541C11.3518 2.64541 11.3518 2.64541 11.3517 2.64541C11.3517 2.64541 11.3517 2.64541 11.3516 2.64541C11.3516 2.64541 11.3516 2.64541 11.3515 2.64541C11.3515 2.64541 11.3515 2.64541 11.3515 2.64541C11.3514 2.64541 11.3514 2.64541 11.3514 2.64541C11.3513 2.64541 11.3513 2.64541 11.3513 2.64541C11.3512 2.64541 11.3512 2.64541 11.3512 2.64541C11.3512 2.64541 11.3511 2.64541 11.3511 2.64541C11.3511 2.64541 11.351 2.64541 11.351 2.64541C11.351 2.64541 11.3509 2.64541 11.3509 2.64541C11.3509 2.64541 11.3509 2.64541 11.3508 2.64541C11.3508 2.64541 11.3508 2.64541 11.3507 2.64541C11.3507 2.64541 11.3507 2.64541 11.3506 2.64541C11.3506 2.64541 11.3506 2.64541 11.3506 2.64541C11.3505 2.64541 11.3505 2.64541 11.3505 2.64541C11.3504 2.64541 11.3504 2.64541 11.3504 2.64541C11.3503 2.64541 11.3503 2.64541 11.3503 2.64541C11.3503 2.64541 11.3502 2.64541 11.3502 2.64541C11.3502 2.64541 11.3501 2.64541 11.3501 2.64541C11.3501 2.64541 11.35 2.64541 11.35 2.64541C11.35 2.64541 11.3499 2.64541 11.3499 2.64541C11.3499 2.64541 11.3499 2.64541 11.3498 2.64541C11.3498 2.64541 11.3498 2.64541 11.3497 2.64541C11.3497 2.64541 11.3497 2.64541 11.3496 2.64541C11.3496 2.64541 11.3496 2.64541 11.3496 2.64541C11.3495 2.64541 11.3495 2.64541 11.3495 2.64541C11.3494 2.64541 11.3494 2.64541 11.3494 2.64541C11.3493 2.64541 11.3493 2.64541 11.3493 2.64541C11.3493 2.64541 11.3492 2.64541 11.3492 2.64541C11.3492 2.64541 11.3491 2.64541 11.3491 2.64541C11.3491 2.64541 11.349 2.64541 11.349 2.64541C11.349 2.64541 11.349 2.64541 11.3489 2.64541C11.3489 2.64541 11.3489 2.64541 11.3488 2.64541C11.3488 2.64541 11.3488 2.64541 11.3487 2.64541C11.3487 2.64541 11.3487 2.64541 11.3486 2.64541C11.3486 2.64541 11.3486 2.64541 11.3486 2.64541C11.3485 2.64541 11.3485 2.64541 11.3485 2.64541C11.3484 2.64541 11.3484 2.64541 11.3484 2.64541C11.3483 2.64541 11.3483 2.64541 11.3483 2.64541C11.3483 2.64541 11.3482 2.64541 11.3482 2.64541C11.3482 2.64541 11.3481 2.64541 11.3481 2.64541C11.3481 2.64541 11.348 2.64541 11.348 2.64541C11.348 2.64541 11.3479 2.64541 11.3479 2.64541C11.3479 2.64541 11.3479 2.64541 11.3478 2.64541C11.3478 2.64541 11.3478 2.64541 11.3477 2.64541C11.3477 2.64541 11.3477 2.64541 11.3476 2.64541C11.3476 2.64541 11.3476 2.64541 11.3475 2.64541C11.3475 2.64541 11.3475 2.64541 11.3475 2.64541C11.3474 2.64541 11.3474 2.64541 11.3474 2.64541C11.3473 2.64541 11.3473 2.64541 11.3473 2.64541C11.3472 2.64541 11.3472 2.64541 11.3472 2.64541C11.3472 2.64541 11.3471 2.64541 11.3471 2.64541C11.3471 2.64541 11.347 2.64541 11.347 2.64541C11.347 2.64541 11.3469 2.64541 11.3469 2.64541C11.3469 2.64541 11.3468 2.64541 11.3468 2.64541C11.3468 2.64541 11.3468 2.64541 11.3467 2.64541C11.3467 2.64541 11.3467 2.64541 11.3466 2.64541C11.3466 2.64541 11.3466 2.64541 11.3465 2.64541C11.3465 2.64541 11.3465 2.64541 11.3464 2.64541C11.3464 2.64541 11.3464 2.64541 11.3464 2.64541C11.3463 2.64541 11.3463 2.64541 11.3463 2.64541C11.3462 2.64541 11.3462 2.64541 11.3462 2.64541C11.3461 2.64541 11.3461 2.64541 11.3461 2.64541C11.346 2.64541 11.346 2.64541 11.346 2.64541C11.346 2.64541 11.3459 2.64541 11.3459 2.64541C11.3459 2.64541 11.3458 2.64541 11.3458 2.64541C11.3458 2.64541 11.3457 2.64541 11.3457 2.64541C11.3457 2.64541 11.3456 2.64541 11.3456 2.64541C11.3456 2.64541 11.3456 2.64541 11.3455 2.64541C11.3455 2.64541 11.3455 2.64541 11.3454 2.64541C11.3454 2.64541 11.3454 2.64541 11.3453 2.64541C11.3453 2.64541 11.3453 2.64541 11.3452 2.64541C11.3452 2.64541 11.3452 2.64541 11.3451 2.64541C11.3451 2.64541 11.3451 2.64541 11.3451 2.64541C11.345 2.64541 11.345 2.64541 11.345 2.64541C11.3449 2.64541 11.3449 2.64541 11.3449 2.64541C11.3448 2.64541 11.3448 2.64541 11.3448 2.64541C11.3447 2.64541 11.3447 2.64541 11.3447 2.64541C11.3447 2.64541 11.3446 2.64541 11.3446 2.64541C11.3446 2.64541 11.3445 2.64541 11.3445 2.64541C11.3445 2.64541 11.3444 2.64541 11.3444 2.64541C11.3444 2.64541 11.3443 2.64541 11.3443 2.64541C11.3443 2.64541 11.3443 2.64541 11.3442 2.64541C11.3442 2.64541 11.3442 2.64541 11.3441 2.64541C11.3441 2.64541 11.3441 2.64541 11.344 2.64541C11.344 2.64541 11.344 2.64541 11.3439 2.64541C11.3439 2.64541 11.3439 2.64541 11.3438 2.64541C11.3438 2.64541 11.3438 2.64541 11.3438 2.64541C11.3437 2.64541 11.3437 2.64541 11.3437 2.64541C11.3436 2.64541 11.3436 2.64541 11.3436 2.64541C11.3435 2.64541 11.3435 2.64541 11.3435 2.64541C11.3434 2.64541 11.3434 2.64541 11.3434 2.64541C11.3434 2.64541 11.3433 2.64541 11.3433 2.64541C11.3433 2.64541 11.3432 2.64541 11.3432 2.64541C11.3432 2.64541 11.3431 2.64541 11.3431 2.64541C11.3431 2.64541 11.343 2.64541 11.343 2.64541C11.343 2.64541 11.3429 2.64541 11.3429 2.64541C11.3429 2.64541 11.3429 2.64541 11.3428 2.64541C11.3428 2.64541 11.3428 2.64541 11.3427 2.64541C11.3427 2.64541 11.3427 2.64541 11.3426 2.64541C11.3426 2.64541 11.3426 2.64541 11.3425 2.64541C11.3425 2.64541 11.3425 2.64541 11.3424 2.64541C11.3424 2.64541 11.3424 2.64541 11.3424 2.64541C11.3423 2.64541 11.3423 2.64541 11.3423 2.64541C11.3422 2.64541 11.3422 2.64541 11.3422 2.64541C11.3421 2.64541 11.3421 2.64541 11.3421 2.64541C11.342 2.64541 11.342 2.64541 11.342 2.64541C11.3419 2.64541 11.3419 2.64541 11.3419 2.64541C11.3419 2.64541 11.3418 2.64541 11.3418 2.64541C11.3418 2.64541 11.3417 2.64541 11.3417 2.64541C11.3417 2.64541 11.3416 2.64541 11.3416 2.64541C11.3416 2.64541 11.3415 2.64541 11.3415 2.64541C11.3415 2.64541 11.3414 2.64541 11.3414 2.64541C11.3414 2.64541 11.3414 2.64541 11.3413 2.64541C11.3413 2.64541 11.3413 2.64541 11.3412 2.64541C11.3412 2.64541 11.3412 2.64541 11.3411 2.64541C11.3411 2.64541 11.3411 2.64541 11.341 2.64541C11.341 2.64541 11.341 2.64541 11.3409 2.64541C11.3409 2.64541 11.3409 2.64541 11.3409 2.64541C11.3408 2.64541 11.3408 2.64541 11.3408 2.64541C11.3407 2.64541 11.3407 2.64541 11.3407 2.64541C11.3406 2.64541 11.3406 2.64541 11.3406 2.64541C11.3405 2.64541 11.3405 2.64541 11.3405 2.64541C11.3404 2.64541 11.3404 2.64541 11.3404 2.64541C11.3403 2.64541 11.3403 2.64541 11.3403 2.64541C11.3403 2.64541 11.3402 2.64541 11.3402 2.64541C11.3402 2.64541 11.3401 2.64541 11.3401 2.64541C11.3401 2.64541 11.34 2.64541 11.34 2.64541C11.34 2.64541 11.3399 2.64541 11.3399 2.64541C11.3399 2.64541 11.3398 2.64541 11.3398 2.64541C11.3398 2.64541 11.3398 2.64541 11.3397 2.64541C11.3397 2.64541 11.3397 2.64541 11.3396 2.64541C11.3396 2.64541 11.3396 2.64541 11.3395 2.64541C11.3395 2.64541 11.3395 2.64541 11.3394 2.64541C11.3394 2.64541 11.3394 2.64541 11.3393 2.64541C11.3393 2.64541 11.3393 2.64541 11.3392 2.64541C11.3392 2.64541 11.3392 2.64541 11.3392 2.64541C11.3391 2.64541 11.3391 2.64541 11.3391 2.64541C11.339 2.64541 11.339 2.64541 11.339 2.64541C11.3389 2.64541 11.3389 2.64541 11.3389 2.64541C11.3388 2.64541 11.3388 2.64541 11.3388 2.64541C11.3387 2.64541 11.3387 2.64541 11.3387 2.64541C11.3386 2.64541 11.3386 2.64541 11.3386 2.64541C11.3386 2.64541 11.3385 2.64541 11.3385 2.64541C11.3385 2.64541 11.3384 2.64541 11.3384 2.64541C11.3384 2.64541 11.3383 2.64541 11.3383 2.64541C11.3383 2.64541 11.3382 2.64541 11.3382 2.64541C11.3382 2.64541 11.3381 2.64541 11.3381 2.64541C11.3381 2.64541 11.3381 2.64541 11.338 2.64541C11.338 2.64541 11.338 2.64541 11.3379 2.64541C11.3379 2.64541 11.3379 2.64541 11.3378 2.64541C11.3378 2.64541 11.3378 2.64541 11.3377 2.64541C11.3377 2.64541 11.3377 2.64541 11.3376 2.64541C11.3376 2.64541 11.3376 2.64541 11.3375 2.64541C11.3375 2.64541 11.3375 2.64541 11.3375 2.64541C11.3374 2.64541 11.3374 2.64541 11.3374 2.64541C11.3373 2.64541 11.3373 2.64541 11.3373 2.64541C11.3372 2.64541 11.3372 2.64541 11.3372 2.64541C11.3371 2.64541 11.3371 2.64541 11.3371 2.64541C11.337 2.64541 11.337 2.64541 11.337 2.64541C11.3369 2.64541 11.3369 2.64541 11.3369 2.64541C11.3369 2.64541 11.3368 2.64541 11.3368 2.64541C11.3368 2.64541 11.3367 2.64541 11.3367 2.64541C11.3367 2.64541 11.3366 2.64541 11.3366 2.64541C11.3366 2.64541 11.3365 2.64541 11.3365 2.64541C11.3365 2.64541 11.3364 2.64541 11.3364 2.64541C11.3364 2.64541 11.3363 2.64541 11.3363 2.64541C11.3363 2.64541 11.3362 2.64541 11.3362 2.64541C11.3362 2.64541 11.3362 2.64541 11.3361 2.64541C11.3361 2.64541 11.3361 2.64541 11.336 2.64541C11.336 2.64541 11.336 2.64541 11.3359 2.64541C11.3359 2.64541 11.3359 2.64541 11.3358 2.64541C11.3358 2.64541 11.3358 2.64541 11.3357 2.64541C11.3357 2.64541 11.3357 2.64541 11.3356 2.64541C11.3356 2.64541 11.3356 2.64541 11.3356 2.64541C11.3355 2.64541 11.3355 2.64541 11.3355 2.64541C11.3354 2.64541 11.3354 2.64541 11.3354 2.64541C11.3353 2.64541 11.3353 2.64541 11.3353 2.64541C11.3352 2.64541 11.3352 2.64541 11.3352 2.64541C11.3351 2.64541 11.3351 2.64541 11.3351 2.64541C11.335 2.64541 11.335 2.64541 11.335 2.64541C11.335 2.64541 11.3349 2.64541 11.3349 2.64541C11.3349 2.64541 11.3348 2.64541 11.3348 2.64541C11.3348 2.64541 11.3347 2.64541 11.3347 2.64541C11.3347 2.64541 11.3346 2.64541 11.3346 2.64541C11.3346 2.64541 11.3345 2.64541 11.3345 2.64541C11.3345 2.64541 11.3344 2.64541 11.3344 2.64541C11.3344 2.64541 11.3343 2.64541 11.3343 2.64541C11.3343 2.64541 11.3343 2.64541 11.3342 2.64541C11.3342 2.64541 11.3342 2.64541 11.3341 2.64541C11.3341 2.64541 11.3341 2.64541 11.334 2.64541C11.334 2.64541 11.334 2.64541 11.3339 2.64541C11.3339 2.64541 11.3339 2.64541 11.3338 2.64541C11.3338 2.64541 11.3338 2.64541 11.3337 2.64541C11.3337 2.64541 11.3337 2.64541 11.3337 2.64541C11.3336 2.64541 11.3336 2.64541 11.3336 2.64541C11.3335 2.64541 11.3335 2.64541 11.3335 2.64541C11.3334 2.64541 11.3334 2.64541 11.3334 2.64541C11.3333 2.64541 11.3333 2.64541 11.3333 2.64541C11.3332 2.64541 11.3332 2.64541 11.3332 2.64541C11.3331 2.64541 11.3331 2.64541 11.3331 2.64541C11.333 2.64541 11.333 2.64541 11.333 2.64541C11.333 2.64541 11.3329 2.64541 11.3329 2.64541C11.3329 2.64541 11.3328 2.64541 11.3328 2.64541C11.3328 2.64541 11.3327 2.64541 11.3327 2.64541C11.3327 2.64541 11.3326 2.64541 11.3326 2.64541C11.3326 2.64541 11.3325 2.64541 11.3325 2.64541C11.3325 2.64541 11.3324 2.64541 11.3324 2.64541C11.3324 2.64541 11.3324 2.64541 11.3323 2.64541C11.3323 2.64541 11.3323 2.64541 11.3322 2.64541C11.3322 2.64541 11.3322 2.64541 11.3321 2.64541C11.3321 2.64541 11.3321 2.64541 11.332 2.64541C11.332 2.64541 11.332 2.64541 11.3319 2.64541C11.3319 2.64541 11.3319 2.64541 11.3318 2.64541C11.3318 2.64541 11.3318 2.64541 11.3317 2.64541C11.3317 2.64541 11.3317 2.64541 11.3317 2.64541V4.64541C11.3317 4.64541 11.3317 4.64541 11.3317 4.64541C11.3318 4.64541 11.3318 4.64541 11.3318 4.64541C11.3319 4.64541 11.3319 4.64541 11.3319 4.64541C11.332 4.64541 11.332 4.64541 11.332 4.64541C11.3321 4.64541 11.3321 4.64541 11.3321 4.64541C11.3322 4.64541 11.3322 4.64541 11.3322 4.64541C11.3323 4.64541 11.3323 4.64541 11.3323 4.64541C11.3324 4.64541 11.3324 4.64541 11.3324 4.64541C11.3324 4.64541 11.3325 4.64541 11.3325 4.64541C11.3325 4.64541 11.3326 4.64541 11.3326 4.64541C11.3326 4.64541 11.3327 4.64541 11.3327 4.64541C11.3327 4.64541 11.3328 4.64541 11.3328 4.64541C11.3328 4.64541 11.3329 4.64541 11.3329 4.64541C11.3329 4.64541 11.333 4.64541 11.333 4.64541C11.333 4.64541 11.333 4.64541 11.3331 4.64541C11.3331 4.64541 11.3331 4.64541 11.3332 4.64541C11.3332 4.64541 11.3332 4.64541 11.3333 4.64541C11.3333 4.64541 11.3333 4.64541 11.3334 4.64541C11.3334 4.64541 11.3334 4.64541 11.3335 4.64541C11.3335 4.64541 11.3335 4.64541 11.3336 4.64541C11.3336 4.64541 11.3336 4.64541 11.3337 4.64541C11.3337 4.64541 11.3337 4.64541 11.3337 4.64541C11.3338 4.64541 11.3338 4.64541 11.3338 4.64541C11.3339 4.64541 11.3339 4.64541 11.3339 4.64541C11.334 4.64541 11.334 4.64541 11.334 4.64541C11.3341 4.64541 11.3341 4.64541 11.3341 4.64541C11.3342 4.64541 11.3342 4.64541 11.3342 4.64541C11.3343 4.64541 11.3343 4.64541 11.3343 4.64541C11.3343 4.64541 11.3344 4.64541 11.3344 4.64541C11.3344 4.64541 11.3345 4.64541 11.3345 4.64541C11.3345 4.64541 11.3346 4.64541 11.3346 4.64541C11.3346 4.64541 11.3347 4.64541 11.3347 4.64541C11.3347 4.64541 11.3348 4.64541 11.3348 4.64541C11.3348 4.64541 11.3349 4.64541 11.3349 4.64541C11.3349 4.64541 11.335 4.64541 11.335 4.64541C11.335 4.64541 11.335 4.64541 11.3351 4.64541C11.3351 4.64541 11.3351 4.64541 11.3352 4.64541C11.3352 4.64541 11.3352 4.64541 11.3353 4.64541C11.3353 4.64541 11.3353 4.64541 11.3354 4.64541C11.3354 4.64541 11.3354 4.64541 11.3355 4.64541C11.3355 4.64541 11.3355 4.64541 11.3356 4.64541C11.3356 4.64541 11.3356 4.64541 11.3356 4.64541C11.3357 4.64541 11.3357 4.64541 11.3357 4.64541C11.3358 4.64541 11.3358 4.64541 11.3358 4.64541C11.3359 4.64541 11.3359 4.64541 11.3359 4.64541C11.336 4.64541 11.336 4.64541 11.336 4.64541C11.3361 4.64541 11.3361 4.64541 11.3361 4.64541C11.3362 4.64541 11.3362 4.64541 11.3362 4.64541C11.3362 4.64541 11.3363 4.64541 11.3363 4.64541C11.3363 4.64541 11.3364 4.64541 11.3364 4.64541C11.3364 4.64541 11.3365 4.64541 11.3365 4.64541C11.3365 4.64541 11.3366 4.64541 11.3366 4.64541C11.3366 4.64541 11.3367 4.64541 11.3367 4.64541C11.3367 4.64541 11.3368 4.64541 11.3368 4.64541C11.3368 4.64541 11.3369 4.64541 11.3369 4.64541C11.3369 4.64541 11.3369 4.64541 11.337 4.64541C11.337 4.64541 11.337 4.64541 11.3371 4.64541C11.3371 4.64541 11.3371 4.64541 11.3372 4.64541C11.3372 4.64541 11.3372 4.64541 11.3373 4.64541C11.3373 4.64541 11.3373 4.64541 11.3374 4.64541C11.3374 4.64541 11.3374 4.64541 11.3375 4.64541C11.3375 4.64541 11.3375 4.64541 11.3375 4.64541C11.3376 4.64541 11.3376 4.64541 11.3376 4.64541C11.3377 4.64541 11.3377 4.64541 11.3377 4.64541C11.3378 4.64541 11.3378 4.64541 11.3378 4.64541C11.3379 4.64541 11.3379 4.64541 11.3379 4.64541C11.338 4.64541 11.338 4.64541 11.338 4.64541C11.3381 4.64541 11.3381 4.64541 11.3381 4.64541C11.3381 4.64541 11.3382 4.64541 11.3382 4.64541C11.3382 4.64541 11.3383 4.64541 11.3383 4.64541C11.3383 4.64541 11.3384 4.64541 11.3384 4.64541C11.3384 4.64541 11.3385 4.64541 11.3385 4.64541C11.3385 4.64541 11.3386 4.64541 11.3386 4.64541C11.3386 4.64541 11.3386 4.64541 11.3387 4.64541C11.3387 4.64541 11.3387 4.64541 11.3388 4.64541C11.3388 4.64541 11.3388 4.64541 11.3389 4.64541C11.3389 4.64541 11.3389 4.64541 11.339 4.64541C11.339 4.64541 11.339 4.64541 11.3391 4.64541C11.3391 4.64541 11.3391 4.64541 11.3392 4.64541C11.3392 4.64541 11.3392 4.64541 11.3392 4.64541C11.3393 4.64541 11.3393 4.64541 11.3393 4.64541C11.3394 4.64541 11.3394 4.64541 11.3394 4.64541C11.3395 4.64541 11.3395 4.64541 11.3395 4.64541C11.3396 4.64541 11.3396 4.64541 11.3396 4.64541C11.3397 4.64541 11.3397 4.64541 11.3397 4.64541C11.3398 4.64541 11.3398 4.64541 11.3398 4.64541C11.3398 4.64541 11.3399 4.64541 11.3399 4.64541C11.3399 4.64541 11.34 4.64541 11.34 4.64541C11.34 4.64541 11.3401 4.64541 11.3401 4.64541C11.3401 4.64541 11.3402 4.64541 11.3402 4.64541C11.3402 4.64541 11.3403 4.64541 11.3403 4.64541C11.3403 4.64541 11.3403 4.64541 11.3404 4.64541C11.3404 4.64541 11.3404 4.64541 11.3405 4.64541C11.3405 4.64541 11.3405 4.64541 11.3406 4.64541C11.3406 4.64541 11.3406 4.64541 11.3407 4.64541C11.3407 4.64541 11.3407 4.64541 11.3408 4.64541C11.3408 4.64541 11.3408 4.64541 11.3409 4.64541C11.3409 4.64541 11.3409 4.64541 11.3409 4.64541C11.341 4.64541 11.341 4.64541 11.341 4.64541C11.3411 4.64541 11.3411 4.64541 11.3411 4.64541C11.3412 4.64541 11.3412 4.64541 11.3412 4.64541C11.3413 4.64541 11.3413 4.64541 11.3413 4.64541C11.3414 4.64541 11.3414 4.64541 11.3414 4.64541C11.3414 4.64541 11.3415 4.64541 11.3415 4.64541C11.3415 4.64541 11.3416 4.64541 11.3416 4.64541C11.3416 4.64541 11.3417 4.64541 11.3417 4.64541C11.3417 4.64541 11.3418 4.64541 11.3418 4.64541C11.3418 4.64541 11.3419 4.64541 11.3419 4.64541C11.3419 4.64541 11.3419 4.64541 11.342 4.64541C11.342 4.64541 11.342 4.64541 11.3421 4.64541C11.3421 4.64541 11.3421 4.64541 11.3422 4.64541C11.3422 4.64541 11.3422 4.64541 11.3423 4.64541C11.3423 4.64541 11.3423 4.64541 11.3424 4.64541C11.3424 4.64541 11.3424 4.64541 11.3424 4.64541C11.3425 4.64541 11.3425 4.64541 11.3425 4.64541C11.3426 4.64541 11.3426 4.64541 11.3426 4.64541C11.3427 4.64541 11.3427 4.64541 11.3427 4.64541C11.3428 4.64541 11.3428 4.64541 11.3428 4.64541C11.3429 4.64541 11.3429 4.64541 11.3429 4.64541C11.3429 4.64541 11.343 4.64541 11.343 4.64541C11.343 4.64541 11.3431 4.64541 11.3431 4.64541C11.3431 4.64541 11.3432 4.64541 11.3432 4.64541C11.3432 4.64541 11.3433 4.64541 11.3433 4.64541C11.3433 4.64541 11.3434 4.64541 11.3434 4.64541C11.3434 4.64541 11.3434 4.64541 11.3435 4.64541C11.3435 4.64541 11.3435 4.64541 11.3436 4.64541C11.3436 4.64541 11.3436 4.64541 11.3437 4.64541C11.3437 4.64541 11.3437 4.64541 11.3438 4.64541C11.3438 4.64541 11.3438 4.64541 11.3438 4.64541C11.3439 4.64541 11.3439 4.64541 11.3439 4.64541C11.344 4.64541 11.344 4.64541 11.344 4.64541C11.3441 4.64541 11.3441 4.64541 11.3441 4.64541C11.3442 4.64541 11.3442 4.64541 11.3442 4.64541C11.3443 4.64541 11.3443 4.64541 11.3443 4.64541C11.3443 4.64541 11.3444 4.64541 11.3444 4.64541C11.3444 4.64541 11.3445 4.64541 11.3445 4.64541C11.3445 4.64541 11.3446 4.64541 11.3446 4.64541C11.3446 4.64541 11.3447 4.64541 11.3447 4.64541C11.3447 4.64541 11.3447 4.64541 11.3448 4.64541C11.3448 4.64541 11.3448 4.64541 11.3449 4.64541C11.3449 4.64541 11.3449 4.64541 11.345 4.64541C11.345 4.64541 11.345 4.64541 11.3451 4.64541C11.3451 4.64541 11.3451 4.64541 11.3451 4.64541C11.3452 4.64541 11.3452 4.64541 11.3452 4.64541C11.3453 4.64541 11.3453 4.64541 11.3453 4.64541C11.3454 4.64541 11.3454 4.64541 11.3454 4.64541C11.3455 4.64541 11.3455 4.64541 11.3455 4.64541C11.3456 4.64541 11.3456 4.64541 11.3456 4.64541C11.3456 4.64541 11.3457 4.64541 11.3457 4.64541C11.3457 4.64541 11.3458 4.64541 11.3458 4.64541C11.3458 4.64541 11.3459 4.64541 11.3459 4.64541C11.3459 4.64541 11.346 4.64541 11.346 4.64541C11.346 4.64541 11.346 4.64541 11.3461 4.64541C11.3461 4.64541 11.3461 4.64541 11.3462 4.64541C11.3462 4.64541 11.3462 4.64541 11.3463 4.64541C11.3463 4.64541 11.3463 4.64541 11.3464 4.64541C11.3464 4.64541 11.3464 4.64541 11.3464 4.64541C11.3465 4.64541 11.3465 4.64541 11.3465 4.64541C11.3466 4.64541 11.3466 4.64541 11.3466 4.64541C11.3467 4.64541 11.3467 4.64541 11.3467 4.64541C11.3468 4.64541 11.3468 4.64541 11.3468 4.64541C11.3468 4.64541 11.3469 4.64541 11.3469 4.64541C11.3469 4.64541 11.347 4.64541 11.347 4.64541C11.347 4.64541 11.3471 4.64541 11.3471 4.64541C11.3471 4.64541 11.3472 4.64541 11.3472 4.64541C11.3472 4.64541 11.3472 4.64541 11.3473 4.64541C11.3473 4.64541 11.3473 4.64541 11.3474 4.64541C11.3474 4.64541 11.3474 4.64541 11.3475 4.64541C11.3475 4.64541 11.3475 4.64541 11.3475 4.64541C11.3476 4.64541 11.3476 4.64541 11.3476 4.64541C11.3477 4.64541 11.3477 4.64541 11.3477 4.64541C11.3478 4.64541 11.3478 4.64541 11.3478 4.64541C11.3479 4.64541 11.3479 4.64541 11.3479 4.64541C11.3479 4.64541 11.348 4.64541 11.348 4.64541C11.348 4.64541 11.3481 4.64541 11.3481 4.64541C11.3481 4.64541 11.3482 4.64541 11.3482 4.64541C11.3482 4.64541 11.3483 4.64541 11.3483 4.64541C11.3483 4.64541 11.3483 4.64541 11.3484 4.64541C11.3484 4.64541 11.3484 4.64541 11.3485 4.64541C11.3485 4.64541 11.3485 4.64541 11.3486 4.64541C11.3486 4.64541 11.3486 4.64541 11.3486 4.64541C11.3487 4.64541 11.3487 4.64541 11.3487 4.64541C11.3488 4.64541 11.3488 4.64541 11.3488 4.64541C11.3489 4.64541 11.3489 4.64541 11.3489 4.64541C11.349 4.64541 11.349 4.64541 11.349 4.64541C11.349 4.64541 11.3491 4.64541 11.3491 4.64541C11.3491 4.64541 11.3492 4.64541 11.3492 4.64541C11.3492 4.64541 11.3493 4.64541 11.3493 4.64541C11.3493 4.64541 11.3493 4.64541 11.3494 4.64541C11.3494 4.64541 11.3494 4.64541 11.3495 4.64541C11.3495 4.64541 11.3495 4.64541 11.3496 4.64541C11.3496 4.64541 11.3496 4.64541 11.3496 4.64541C11.3497 4.64541 11.3497 4.64541 11.3497 4.64541C11.3498 4.64541 11.3498 4.64541 11.3498 4.64541C11.3499 4.64541 11.3499 4.64541 11.3499 4.64541C11.3499 4.64541 11.35 4.64541 11.35 4.64541C11.35 4.64541 11.3501 4.64541 11.3501 4.64541C11.3501 4.64541 11.3502 4.64541 11.3502 4.64541C11.3502 4.64541 11.3503 4.64541 11.3503 4.64541C11.3503 4.64541 11.3503 4.64541 11.3504 4.64541C11.3504 4.64541 11.3504 4.64541 11.3505 4.64541C11.3505 4.64541 11.3505 4.64541 11.3506 4.64541C11.3506 4.64541 11.3506 4.64541 11.3506 4.64541C11.3507 4.64541 11.3507 4.64541 11.3507 4.64541C11.3508 4.64541 11.3508 4.64541 11.3508 4.64541C11.3509 4.64541 11.3509 4.64541 11.3509 4.64541C11.3509 4.64541 11.351 4.64541 11.351 4.64541C11.351 4.64541 11.3511 4.64541 11.3511 4.64541C11.3511 4.64541 11.3512 4.64541 11.3512 4.64541C11.3512 4.64541 11.3512 4.64541 11.3513 4.64541C11.3513 4.64541 11.3513 4.64541 11.3514 4.64541C11.3514 4.64541 11.3514 4.64541 11.3515 4.64541C11.3515 4.64541 11.3515 4.64541 11.3515 4.64541C11.3516 4.64541 11.3516 4.64541 11.3516 4.64541C11.3517 4.64541 11.3517 4.64541 11.3517 4.64541C11.3518 4.64541 11.3518 4.64541 11.3518 4.64541C11.3518 4.64541 11.3519 4.64541 11.3519 4.64541C11.3519 4.64541 11.352 4.64541 11.352 4.64541C11.352 4.64541 11.3521 4.64541 11.3521 4.64541C11.3521 4.64541 11.3521 4.64541 11.3522 4.64541C11.3522 4.64541 11.3522 4.64541 11.3523 4.64541C11.3523 4.64541 11.3523 4.64541 11.3523 4.64541C11.3524 4.64541 11.3524 4.64541 11.3524 4.64541C11.3525 4.64541 11.3525 4.64541 11.3525 4.64541C11.3526 4.64541 11.3526 4.64541 11.3526 4.64541C11.3526 4.64541 11.3527 4.64541 11.3527 4.64541C11.3527 4.64541 11.3528 4.64541 11.3528 4.64541C11.3528 4.64541 11.3529 4.64541 11.3529 4.64541C11.3529 4.64541 11.3529 4.64541 11.353 4.64541C11.353 4.64541 11.353 4.64541 11.3531 4.64541C11.3531 4.64541 11.3531 4.64541 11.3531 4.64541C11.3532 4.64541 11.3532 4.64541 11.3532 4.64541C11.3533 4.64541 11.3533 4.64541 11.3533 4.64541C11.3534 4.64541 11.3534 4.64541 11.3534 4.64541C11.3534 4.64541 11.3535 4.64541 11.3535 4.64541C11.3535 4.64541 11.3536 4.64541 11.3536 4.64541C11.3536 4.64541 11.3537 4.64541 11.3537 4.64541C11.3537 4.64541 11.3537 4.64541 11.3538 4.64541C11.3538 4.64541 11.3538 4.64541 11.3539 4.64541C11.3539 4.64541 11.3539 4.64541 11.3539 4.64541C11.354 4.64541 11.354 4.64541 11.354 4.64541C11.3541 4.64541 11.3541 4.64541 11.3541 4.64541C11.3542 4.64541 11.3542 4.64541 11.3542 4.64541C11.3542 4.64541 11.3543 4.64541 11.3543 4.64541C11.3543 4.64541 11.3544 4.64541 11.3544 4.64541C11.3544 4.64541 11.3544 4.64541 11.3545 4.64541C11.3545 4.64541 11.3545 4.64541 11.3546 4.64541C11.3546 4.64541 11.3546 4.64541 11.3546 4.64541C11.3547 4.64541 11.3547 4.64541 11.3547 4.64541C11.3548 4.64541 11.3548 4.64541 11.3548 4.64541C11.3549 4.64541 11.3549 4.64541 11.3549 4.64541C11.3549 4.64541 11.355 4.64541 11.355 4.64541C11.355 4.64541 11.3551 4.64541 11.3551 4.64541C11.3551 4.64541 11.3551 4.64541 11.3552 4.64541C11.3552 4.64541 11.3552 4.64541 11.3553 4.64541C11.3553 4.64541 11.3553 4.64541 11.3554 4.64541C11.3554 4.64541 11.3554 4.64541 11.3554 4.64541C11.3555 4.64541 11.3555 4.64541 11.3555 4.64541C11.3556 4.64541 11.3556 4.64541 11.3556 4.64541C11.3556 4.64541 11.3557 4.64541 11.3557 4.64541C11.3557 4.64541 11.3558 4.64541 11.3558 4.64541C11.3558 4.64541 11.3558 4.64541 11.3559 4.64541C11.3559 4.64541 11.3559 4.64541 11.356 4.64541C11.356 4.64541 11.356 4.64541 11.356 4.64541C11.3561 4.64541 11.3561 4.64541 11.3561 4.64541C11.3562 4.64541 11.3562 4.64541 11.3562 4.64541C11.3562 4.64541 11.3563 4.64541 11.3563 4.64541C11.3563 4.64541 11.3564 4.64541 11.3564 4.64541C11.3564 4.64541 11.3565 4.64541 11.3565 4.64541C11.3565 4.64541 11.3565 4.64541 11.3566 4.64541C11.3566 4.64541 11.3566 4.64541 11.3567 4.64541C11.3567 4.64541 11.3567 4.64541 11.3567 4.64541C11.3568 4.64541 11.3568 4.64541 11.3568 4.64541C11.3569 4.64541 11.3569 4.64541 11.3569 4.64541C11.3569 4.64541 11.357 4.64541 11.357 4.64541C11.357 4.64541 11.3571 4.64541 11.3571 4.64541C11.3571 4.64541 11.3571 4.64541 11.3572 4.64541C11.3572 4.64541 11.3572 4.64541 11.3573 4.64541C11.3573 4.64541 11.3573 4.64541 11.3573 4.64541C11.3574 4.64541 11.3574 4.64541 11.3574 4.64541C11.3575 4.64541 11.3575 4.64541 11.3575 4.64541C11.3575 4.64541 11.3576 4.64541 11.3576 4.64541C11.3576 4.64541 11.3577 4.64541 11.3577 4.64541C11.3577 4.64541 11.3577 4.64541 11.3578 4.64541C11.3578 4.64541 11.3578 4.64541 11.3579 4.64541C11.3579 4.64541 11.3579 4.64541 11.3579 4.64541C11.358 4.64541 11.358 4.64541 11.358 4.64541C11.3581 4.64541 11.3581 4.64541 11.3581 4.64541C11.3581 4.64541 11.3582 4.64541 11.3582 4.64541C11.3582 4.64541 11.3583 4.64541 11.3583 4.64541C11.3583 4.64541 11.3583 4.64541 11.3584 4.64541C11.3584 4.64541 11.3584 4.64541 11.3584 4.64541C11.3585 4.64541 11.3585 4.64541 11.3585 4.64541C11.3586 4.64541 11.3586 4.64541 11.3586 4.64541C11.3586 4.64541 11.3587 4.64541 11.3587 4.64541C11.3587 4.64541 11.3588 4.64541 11.3588 4.64541C11.3588 4.64541 11.3588 4.64541 11.3589 4.64541C11.3589 4.64541 11.3589 4.64541 11.359 4.64541C11.359 4.64541 11.359 4.64541 11.359 4.64541C11.3591 4.64541 11.3591 4.64541 11.3591 4.64541C11.3592 4.64541 11.3592 4.64541 11.3592 4.64541C11.3592 4.64541 11.3593 4.64541 11.3593 4.64541C11.3593 4.64541 11.3594 4.64541 11.3594 4.64541C11.3594 4.64541 11.3594 4.64541 11.3595 4.64541C11.3595 4.64541 11.3595 4.64541 11.3595 4.64541C11.3596 4.64541 11.3596 4.64541 11.3596 4.64541C11.3597 4.64541 11.3597 4.64541 11.3597 4.64541C11.3597 4.64541 11.3598 4.64541 11.3598 4.64541C11.3598 4.64541 11.3599 4.64541 11.3599 4.64541C11.3599 4.64541 11.3599 4.64541 11.36 4.64541C11.36 4.64541 11.36 4.64541 11.3601 4.64541C11.3601 4.64541 11.3601 4.64541 11.3601 4.64541C11.3602 4.64541 11.3602 4.64541 11.3602 4.64541C11.3602 4.64541 11.3603 4.64541 11.3603 4.64541C11.3603 4.64541 11.3604 4.64541 11.3604 4.64541C11.3604 4.64541 11.3604 4.64541 11.3605 4.64541C11.3605 4.64541 11.3605 4.64541 11.3605 4.64541C11.3606 4.64541 11.3606 4.64541 11.3606 4.64541C11.3607 4.64541 11.3607 4.64541 11.3607 4.64541C11.3607 4.64541 11.3608 4.64541 11.3608 4.64541C11.3608 4.64541 11.3609 4.64541 11.3609 4.64541C11.3609 4.64541 11.3609 4.64541 11.361 4.64541C11.361 4.64541 11.361 4.64541 11.361 4.64541C11.3611 4.64541 11.3611 4.64541 11.3611 4.64541C11.3612 4.64541 11.3612 4.64541 11.3612 4.64541C11.3612 4.64541 11.3613 4.64541 11.3613 4.64541C11.3613 4.64541 11.3613 4.64541 11.3614 4.64541C11.3614 4.64541 11.3614 4.64541 11.3615 4.64541C11.3615 4.64541 11.3615 4.64541 11.3615 4.64541C11.3616 4.64541 11.3616 4.64541 11.3616 4.64541C11.3617 4.64541 11.3617 4.64541 11.3617 4.64541C11.3617 4.64541 11.3618 4.64541 11.3618 4.64541C11.3618 4.64541 11.3618 4.64541 11.3619 4.64541C11.3619 4.64541 11.3619 4.64541 11.3619 4.64541C11.362 4.64541 11.362 4.64541 11.362 4.64541C11.3621 4.64541 11.3621 4.64541 11.3621 4.64541C11.3621 4.64541 11.3622 4.64541 11.3622 4.64541C11.3622 4.64541 11.3622 4.64541 11.3623 4.64541C11.3623 4.64541 11.3623 4.64541 11.3624 4.64541C11.3624 4.64541 11.3624 4.64541 11.3624 4.64541C11.3625 4.64541 11.3625 4.64541 11.3625 4.64541C11.3625 4.64541 11.3626 4.64541 11.3626 4.64541C11.3626 4.64541 11.3627 4.64541 11.3627 4.64541C11.3627 4.64541 11.3627 4.64541 11.3628 4.64541C11.3628 4.64541 11.3628 4.64541 11.3628 4.64541C11.3629 4.64541 11.3629 4.64541 11.3629 4.64541C11.363 4.64541 11.363 4.64541 11.363 4.64541C11.363 4.64541 11.3631 4.64541 11.3631 4.64541C11.3631 4.64541 11.3631 4.64541 11.3632 4.64541C11.3632 4.64541 11.3632 4.64541 11.3632 4.64541C11.3633 4.64541 11.3633 4.64541 11.3633 4.64541C11.3634 4.64541 11.3634 4.64541 11.3634 4.64541C11.3634 4.64541 11.3635 4.64541 11.3635 4.64541C11.3635 4.64541 11.3635 4.64541 11.3636 4.64541C11.3636 4.64541 11.3636 4.64541 11.3636 4.64541C11.3637 4.64541 11.3637 4.64541 11.3637 4.64541C11.3638 4.64541 11.3638 4.64541 11.3638 4.64541C11.3638 4.64541 11.3639 4.64541 11.3639 4.64541C11.3639 4.64541 11.3639 4.64541 11.364 4.64541C11.364 4.64541 11.364 4.64541 11.364 4.64541C11.3641 4.64541 11.3641 4.64541 11.3641 4.64541C11.3642 4.64541 11.3642 4.64541 11.3642 4.64541C11.3642 4.64541 11.3643 4.64541 11.3643 4.64541C11.3643 4.64541 11.3643 4.64541 11.3644 4.64541C11.3644 4.64541 11.3644 4.64541 11.3644 4.64541C11.3645 4.64541 11.3645 4.64541 11.3645 4.64541C11.3645 4.64541 11.3646 4.64541 11.3646 4.64541C11.3646 4.64541 11.3647 4.64541 11.3647 4.64541C11.3647 4.64541 11.3647 4.64541 11.3648 4.64541C11.3648 4.64541 11.3648 4.64541 11.3648 4.64541C11.3649 4.64541 11.3649 4.64541 11.3649 4.64541C11.3649 4.64541 11.365 4.64541 11.365 4.64541C11.365 4.64541 11.365 4.64541 11.3651 4.64541C11.3651 4.64541 11.3651 4.64541 11.3652 4.64541C11.3652 4.64541 11.3652 4.64541 11.3652 4.64541C11.3653 4.64541 11.3653 4.64541 11.3653 4.64541C11.3653 4.64541 11.3654 4.64541 11.3654 4.64541C11.3654 4.64541 11.3654 4.64541 11.3655 4.64541C11.3655 4.64541 11.3655 4.64541 11.3655 4.64541C11.3656 4.64541 11.3656 4.64541 11.3656 4.64541C11.3656 4.64541 11.3657 4.64541 11.3657 4.64541C11.3657 4.64541 11.3657 4.64541 11.3658 4.64541C11.3658 4.64541 11.3658 4.64541 11.3659 4.64541C11.3659 4.64541 11.3659 4.64541 11.3659 4.64541C11.366 4.64541 11.366 4.64541 11.366 4.64541C11.366 4.64541 11.3661 4.64541 11.3661 4.64541C11.3661 4.64541 11.3661 4.64541 11.3662 4.64541C11.3662 4.64541 11.3662 4.64541 11.3662 4.64541C11.3663 4.64541 11.3663 4.64541 11.3663 4.64541C11.3663 4.64541 11.3664 4.64541 11.3664 4.64541C11.3664 4.64541 11.3664 4.64541 11.3665 4.64541C11.3665 4.64541 11.3665 4.64541 11.3665 4.64541C11.3666 4.64541 11.3666 4.64541 11.3666 4.64541C11.3666 4.64541 11.3667 4.64541 11.3667 4.64541C11.3667 4.64541 11.3667 4.64541 11.3668 4.64541C11.3668 4.64541 11.3668 4.64541 11.3669 4.64541C11.3669 4.64541 11.3669 4.64541 11.3669 4.64541C11.367 4.64541 11.367 4.64541 11.367 4.64541C11.367 4.64541 11.3671 4.64541 11.3671 4.64541C11.3671 4.64541 11.3671 4.64541 11.3672 4.64541C11.3672 4.64541 11.3672 4.64541 11.3672 4.64541C11.3673 4.64541 11.3673 4.64541 11.3673 4.64541C11.3673 4.64541 11.3674 4.64541 11.3674 4.64541C11.3674 4.64541 11.3674 4.64541 11.3675 4.64541C11.3675 4.64541 11.3675 4.64541 11.3675 4.64541C11.3676 4.64541 11.3676 4.64541 11.3676 4.64541C11.3676 4.64541 11.3677 4.64541 11.3677 4.64541C11.3677 4.64541 11.3677 4.64541 11.3678 4.64541C11.3678 4.64541 11.3678 4.64541 11.3678 4.64541C11.3679 4.64541 11.3679 4.64541 11.3679 4.64541C11.3679 4.64541 11.368 4.64541 11.368 4.64541C11.368 4.64541 11.368 4.64541 11.3681 4.64541C11.3681 4.64541 11.3681 4.64541 11.3681 4.64541C11.3682 4.64541 11.3682 4.64541 11.3682 4.64541C11.3682 4.64541 11.3683 4.64541 11.3683 4.64541C11.3683 4.64541 11.3683 4.64541 11.3684 4.64541C11.3684 4.64541 11.3684 4.64541 11.3684 4.64541C11.3685 4.64541 11.3685 4.64541 11.3685 4.64541C11.3685 4.64541 11.3686 4.64541 11.3686 4.64541C11.3686 4.64541 11.3686 4.64541 11.3687 4.64541C11.3687 4.64541 11.3687 4.64541 11.3687 4.64541C11.3688 4.64541 11.3688 4.64541 11.3688 4.64541C11.3688 4.64541 11.3688 4.64541 11.3689 4.64541C11.3689 4.64541 11.3689 4.64541 11.3689 4.64541C11.369 4.64541 11.369 4.64541 11.369 4.64541C11.369 4.64541 11.3691 4.64541 11.3691 4.64541C11.3691 4.64541 11.3691 4.64541 11.3692 4.64541C11.3692 4.64541 11.3692 4.64541 11.3692 4.64541C11.3693 4.64541 11.3693 4.64541 11.3693 4.64541C11.3693 4.64541 11.3694 4.64541 11.3694 4.64541C11.3694 4.64541 11.3694 4.64541 11.3695 4.64541C11.3695 4.64541 11.3695 4.64541 11.3695 4.64541C11.3696 4.64541 11.3696 4.64541 11.3696 4.64541C11.3696 4.64541 11.3697 4.64541 11.3697 4.64541C11.3697 4.64541 11.3697 4.64541 11.3697 4.64541C11.3698 4.64541 11.3698 4.64541 11.3698 4.64541C11.3698 4.64541 11.3699 4.64541 11.3699 4.64541C11.3699 4.64541 11.3699 4.64541 11.37 4.64541C11.37 4.64541 11.37 4.64541 11.37 4.64541C11.3701 4.64541 11.3701 4.64541 11.3701 4.64541C11.3701 4.64541 11.3702 4.64541 11.3702 4.64541C11.3702 4.64541 11.3702 4.64541 11.3703 4.64541C11.3703 4.64541 11.3703 4.64541 11.3703 4.64541C11.3703 4.64541 11.3704 4.64541 11.3704 4.64541C11.3704 4.64541 11.3704 4.64541 11.3705 4.64541C11.3705 4.64541 11.3705 4.64541 11.3705 4.64541C11.3706 4.64541 11.3706 4.64541 11.3706 4.64541C11.3706 4.64541 11.3707 4.64541 11.3707 4.64541C11.3707 4.64541 11.3707 4.64541 11.3708 4.64541C11.3708 4.64541 11.3708 4.64541 11.3708 4.64541C11.3708 4.64541 11.3709 4.64541 11.3709 4.64541C11.3709 4.64541 11.3709 4.64541 11.371 4.64541C11.371 4.64541 11.371 4.64541 11.371 4.64541C11.3711 4.64541 11.3711 4.64541 11.3711 4.64541C11.3711 4.64541 11.3712 4.64541 11.3712 4.64541C11.3712 4.64541 11.3712 4.64541 11.3712 4.64541C11.3713 4.64541 11.3713 4.64541 11.3713 4.64541C11.3713 4.64541 11.3714 4.64541 11.3714 4.64541C11.3714 4.64541 11.3714 4.64541 11.3715 4.64541C11.3715 4.64541 11.3715 4.64541 11.3715 4.64541C11.3715 4.64541 11.3716 4.64541 11.3716 4.64541C11.3716 4.64541 11.3716 4.64541 11.3717 4.64541C11.3717 4.64541 11.3717 4.64541 11.3717 4.64541C11.3718 4.64541 11.3718 4.64541 11.3718 4.64541C11.3718 4.64541 11.3718 4.64541 11.3719 4.64541C11.3719 4.64541 11.3719 4.64541 11.3719 4.64541C11.372 4.64541 11.372 4.64541 11.372 4.64541C11.372 4.64541 11.3721 4.64541 11.3721 4.64541C11.3721 4.64541 11.3721 4.64541 11.3721 4.64541C11.3722 4.64541 11.3722 4.64541 11.3722 4.64541C11.3722 4.64541 11.3723 4.64541 11.3723 4.64541C11.3723 4.64541 11.3723 4.64541 11.3723 4.64541C11.3724 4.64541 11.3724 4.64541 11.3724 4.64541C11.3724 4.64541 11.3725 4.64541 11.3725 4.64541C11.3725 4.64541 11.3725 4.64541 11.3726 4.64541C11.3726 4.64541 11.3726 4.64541 11.3726 4.64541C11.3726 4.64541 11.3727 4.64541 11.3727 4.64541C11.3727 4.64541 11.3727 4.64541 11.3728 4.64541C11.3728 4.64541 11.3728 4.64541 11.3728 4.64541C11.3728 4.64541 11.3729 4.64541 11.3729 4.64541C11.3729 4.64541 11.3729 4.64541 11.373 4.64541C11.373 4.64541 11.373 4.64541 11.373 4.64541C11.373 4.64541 11.3731 4.64541 11.3731 4.64541C11.3731 4.64541 11.3731 4.64541 11.3732 4.64541C11.3732 4.64541 11.3732 4.64541 11.3732 4.64541C11.3732 4.64541 11.3733 4.64541 11.3733 4.64541C11.3733 4.64541 11.3733 4.64541 11.3734 4.64541C11.3734 4.64541 11.3734 4.64541 11.3734 4.64541C11.3734 4.64541 11.3735 4.64541 11.3735 4.64541C11.3735 4.64541 11.3735 4.64541 11.3736 4.64541C11.3736 4.64541 11.3736 4.64541 11.3736 4.64541C11.3736 4.64541 11.3737 4.64541 11.3737 4.64541C11.3737 4.64541 11.3737 4.64541 11.3738 4.64541C11.3738 4.64541 11.3738 4.64541 11.3738 4.64541C11.3738 4.64541 11.3739 4.64541 11.3739 4.64541C11.3739 4.64541 11.3739 4.64541 11.374 4.64541C11.374 4.64541 11.374 4.64541 11.374 4.64541C11.374 4.64541 11.3741 4.64541 11.3741 4.64541C11.3741 4.64541 11.3741 4.64541 11.3742 4.64541C11.3742 4.64541 11.3742 4.64541 11.3742 4.64541C11.3742 4.64541 11.3743 4.64541 11.3743 4.64541C11.3743 4.64541 11.3743 4.64541 11.3743 4.64541C11.3744 4.64541 11.3744 4.64541 11.3744 4.64541C11.3744 4.64541 11.3745 4.64541 11.3745 4.64541C11.3745 4.64541 11.3745 4.64541 11.3745 4.64541C11.3746 4.64541 11.3746 4.64541 11.3746 4.64541C11.3746 4.64541 11.3746 4.64541 11.3747 4.64541C11.3747 4.64541 11.3747 4.64541 11.3747 4.64541C11.3748 4.64541 11.3748 4.64541 11.3748 4.64541C11.3748 4.64541 11.3748 4.64541 11.3749 4.64541C11.3749 4.64541 11.3749 4.64541 11.3749 4.64541C11.3749 4.64541 11.375 4.64541 11.375 4.64541V2.64541ZM11.4313 2.6504C8.52784 2.3595 5.5956 2.24595 2.6725 2.54218L2.87414 4.53199C5.61687 4.25404 8.40464 4.35717 11.232 4.64043L11.4313 2.6504ZM2.67575 2.54185L1.57075 2.65019L1.76589 4.64064L2.87089 4.53231L2.67575 2.54185ZM1.57351 2.64992C1.88522 2.62023 2.18253 2.84944 2.21423 3.18227L0.223239 3.37189C0.29827 4.15972 0.99642 4.71393 1.76313 4.64091L1.57351 2.64992ZM2.21423 3.18227C2.24461 3.5013 2.00782 3.79608 1.67875 3.82819L1.48455 1.83764C0.711321 1.91308 0.149522 2.59786 0.223239 3.37189L2.21423 3.18227ZM1.67922 3.82814L2.78422 3.71981L2.58908 1.72935L1.48408 1.83769L1.67922 3.82814ZM2.78764 3.71947C5.57849 3.43619 8.42578 3.54454 11.3152 3.82813L11.5106 1.8377C8.55002 1.54712 5.55814 1.42798 2.58567 1.72969L2.78764 3.71947ZM11.3158 3.82819C10.9803 3.79545 10.7494 3.49958 10.7805 3.17998L12.7711 3.37418C12.8456 2.61041 12.2897 1.91371 11.51 1.83764L11.3158 3.82819ZM10.7788 3.20038C10.8041 2.87155 11.0776 2.64541 11.375 2.64541V4.64541C12.084 4.64541 12.7151 4.10511 12.7729 3.35378L10.7788 3.20038Z" fill="#FF6060" mask="url(#path-1-inside-1_135_222)"/>
</g>
<g id="Vector_2">
<mask id="path-3-inside-2_135_222" fill="white">
<path d="M4.60416 3.09834C4.5825 3.09834 4.56083 3.09834 4.53374 3.09293C4.31708 3.05501 4.16541 2.84376 4.20333 2.62709L4.3225 1.91751C4.40916 1.39751 4.52833 0.677094 5.79041 0.677094H7.20958C8.47708 0.677094 8.59625 1.42459 8.6775 1.92293L8.79666 2.62709C8.83458 2.84918 8.68291 3.06043 8.46625 3.09293C8.24416 3.13084 8.03291 2.97918 8.00041 2.76251L7.88125 2.05834C7.80541 1.58709 7.78916 1.49501 7.215 1.49501H5.79583C5.22166 1.49501 5.21083 1.57084 5.12958 2.05293L5.00499 2.75709C4.97249 2.95751 4.79916 3.09834 4.60416 3.09834Z"/>
</mask>
<path d="M4.60416 3.09834C4.5825 3.09834 4.56083 3.09834 4.53374 3.09293C4.31708 3.05501 4.16541 2.84376 4.20333 2.62709L4.3225 1.91751C4.40916 1.39751 4.52833 0.677094 5.79041 0.677094H7.20958C8.47708 0.677094 8.59625 1.42459 8.6775 1.92293L8.79666 2.62709C8.83458 2.84918 8.68291 3.06043 8.46625 3.09293C8.24416 3.13084 8.03291 2.97918 8.00041 2.76251L7.88125 2.05834C7.80541 1.58709 7.78916 1.49501 7.215 1.49501H5.79583C5.22166 1.49501 5.21083 1.57084 5.12958 2.05293L5.00499 2.75709C4.97249 2.95751 4.79916 3.09834 4.60416 3.09834Z" fill="#292D32"/>
<path d="M4.53374 3.09293L4.72986 2.11235L4.71802 2.10998L4.70613 2.1079L4.53374 3.09293ZM4.20333 2.62709L5.18838 2.79948L5.18952 2.79271L4.20333 2.62709ZM4.3225 1.91751L5.30869 2.08313L5.30889 2.08191L4.3225 1.91751ZM8.6775 1.92293L7.69051 2.08385L7.69151 2.08978L8.6775 1.92293ZM8.79666 2.62709L7.81068 2.79395L7.81093 2.79539L8.79666 2.62709ZM8.46625 3.09293L8.31791 2.10399L8.30791 2.10549L8.29795 2.10719L8.46625 3.09293ZM8.00041 2.76251L8.98935 2.61417L8.98796 2.6049L8.98639 2.59565L8.00041 2.76251ZM7.88125 2.05834L6.89391 2.21722L6.89526 2.2252L7.88125 2.05834ZM5.12958 2.05293L6.11432 2.22715L6.11567 2.21912L5.12958 2.05293ZM5.00499 2.75709L4.02029 2.58288L4.01904 2.58994L4.01789 2.59702L5.00499 2.75709ZM4.60416 2.09834C4.58405 2.09834 4.65049 2.09647 4.72986 2.11235L4.33763 4.07351C4.47117 4.10022 4.58094 4.09834 4.60416 4.09834V2.09834ZM4.70613 2.1079C5.02121 2.16304 5.24778 2.45994 5.18836 2.79947L3.2183 2.45471C3.08305 3.22758 3.61294 3.94698 4.36136 4.07796L4.70613 2.1079ZM5.18952 2.79271L5.30868 2.08313L3.33631 1.75189L3.21714 2.46147L5.18952 2.79271ZM5.30889 2.08191C5.33206 1.94287 5.34642 1.8647 5.3671 1.79715C5.38548 1.73714 5.398 1.72522 5.39297 1.73144C5.38206 1.74491 5.37661 1.74043 5.41076 1.72683C5.45441 1.70945 5.56661 1.67709 5.79041 1.67709V-0.322906C4.96211 -0.322906 4.28385 -0.0772139 3.83838 0.473165C3.44859 0.954749 3.37265 1.53379 3.3361 1.75311L5.30889 2.08191ZM5.79041 1.67709H7.20958V-0.322906H5.79041V1.67709ZM7.20958 1.67709C7.43114 1.67709 7.54166 1.7101 7.5842 1.72747C7.61776 1.74117 7.61438 1.74646 7.60606 1.73601C7.60352 1.73282 7.61679 1.74762 7.63494 1.80761C7.65521 1.87459 7.66878 1.95046 7.69053 2.08385L9.66446 1.76201C9.62999 1.55057 9.5563 0.97456 9.1707 0.490257C8.72953 -0.0638425 8.05113 -0.322906 7.20958 -0.322906V1.67709ZM7.69151 2.08978L7.81068 2.79395L9.78264 2.46024L9.66348 1.75607L7.69151 2.08978ZM7.81093 2.79539C7.75703 2.47972 7.96618 2.15675 8.31791 2.10399L8.61459 4.08186C9.39964 3.9641 9.91213 3.21863 9.7824 2.4588L7.81093 2.79539ZM8.29795 2.10719C8.61362 2.0533 8.93659 2.26245 8.98935 2.61417L7.01148 2.91085C7.12923 3.6959 7.87471 4.20839 8.63454 4.07866L8.29795 2.10719ZM8.98639 2.59565L8.86723 1.89148L6.89526 2.2252L7.01443 2.92937L8.98639 2.59565ZM8.86854 1.89947C8.85286 1.80198 8.82864 1.6427 8.78823 1.49967C8.74448 1.34478 8.65295 1.09504 8.42765 0.878685C8.19684 0.657039 7.9326 0.571769 7.73892 0.534642C7.55767 0.4999 7.37008 0.49501 7.215 0.49501V2.49501C7.34699 2.49501 7.37674 2.50163 7.3624 2.49888C7.33562 2.49375 7.18784 2.46095 7.04234 2.32123C6.90236 2.1868 6.86499 2.04844 6.86355 2.04336C6.86225 2.03875 6.86489 2.04733 6.87113 2.08103C6.87739 2.11483 6.88403 2.15558 6.89395 2.21722L8.86854 1.89947ZM7.215 0.49501H5.79583V2.49501H7.215V0.49501ZM5.79583 0.49501C5.64639 0.49501 5.46283 0.498624 5.28726 0.529588C5.10047 0.562528 4.83158 0.641194 4.5945 0.863104C4.36215 1.08058 4.26937 1.33485 4.22573 1.48751C4.18539 1.62863 4.16003 1.78855 4.14349 1.88673L6.11567 2.21912C6.12641 2.1554 6.13353 2.11327 6.14028 2.07786C6.14702 2.04256 6.14985 2.03321 6.1487 2.03724C6.14788 2.04009 6.10893 2.18501 5.96122 2.32327C5.80877 2.46596 5.65533 2.49554 5.6346 2.4992C5.62366 2.50112 5.62886 2.49943 5.66002 2.49773C5.69031 2.49608 5.73344 2.49501 5.79583 2.49501V0.49501ZM4.14487 1.87871L4.02029 2.58288L5.9897 2.93131L6.11429 2.22714L4.14487 1.87871ZM4.01789 2.59702C4.06574 2.30194 4.32022 2.09834 4.60416 2.09834V4.09834C5.2781 4.09834 5.87925 3.61308 5.9921 2.91716L4.01789 2.59702Z" fill="#FF6060" mask="url(#path-3-inside-2_135_222)"/>
</g>
<path id="Vector_3" d="M9.76577 10.3988L9.76576 10.399C9.76576 10.3989 9.76576 10.3988 9.76577 10.3988Z" fill="#292D32" stroke="#FF6060"/>
<g id="Vector_4">
<mask id="path-6-inside-3_135_222" fill="white">
<path d="M7.39921 9.34375H5.59546C5.37338 9.34375 5.18921 9.15958 5.18921 8.9375C5.18921 8.71542 5.37338 8.53125 5.59546 8.53125H7.39921C7.62129 8.53125 7.80546 8.71542 7.80546 8.9375C7.80546 9.15958 7.62129 9.34375 7.39921 9.34375Z"/>
</mask>
<path d="M7.39921 9.34375H5.59546C5.37338 9.34375 5.18921 9.15958 5.18921 8.9375C5.18921 8.71542 5.37338 8.53125 5.59546 8.53125H7.39921C7.62129 8.53125 7.80546 8.71542 7.80546 8.9375C7.80546 9.15958 7.62129 9.34375 7.39921 9.34375Z" fill="#292D32"/>
<path d="M7.39921 8.34375H5.59546V10.3438H7.39921V8.34375ZM5.59546 8.34375C5.92566 8.34375 6.18921 8.6073 6.18921 8.9375H4.18921C4.18921 9.71187 4.82109 10.3438 5.59546 10.3438V8.34375ZM6.18921 8.9375C6.18921 9.2677 5.92566 9.53125 5.59546 9.53125V7.53125C4.82109 7.53125 4.18921 8.16313 4.18921 8.9375H6.18921ZM5.59546 9.53125H7.39921V7.53125H5.59546V9.53125ZM7.39921 9.53125C7.06901 9.53125 6.80546 9.2677 6.80546 8.9375H8.80546C8.80546 8.16313 8.17358 7.53125 7.39921 7.53125V9.53125ZM6.80546 8.9375C6.80546 8.6073 7.06901 8.34375 7.39921 8.34375V10.3438C8.17358 10.3438 8.80546 9.71187 8.80546 8.9375H6.80546Z" fill="#FF6060" mask="url(#path-6-inside-3_135_222)"/>
</g>
<g id="Vector_5">
<mask id="path-8-inside-4_135_222" fill="white">
<path d="M7.85409 7.17709H5.14575C4.92367 7.17709 4.7395 6.99293 4.7395 6.77084C4.7395 6.54876 4.92367 6.36459 5.14575 6.36459H7.85409C8.07617 6.36459 8.26034 6.54876 8.26034 6.77084C8.26034 6.99293 8.07617 7.17709 7.85409 7.17709Z"/>
</mask>
<path d="M7.85409 7.17709H5.14575C4.92367 7.17709 4.7395 6.99293 4.7395 6.77084C4.7395 6.54876 4.92367 6.36459 5.14575 6.36459H7.85409C8.07617 6.36459 8.26034 6.54876 8.26034 6.77084C8.26034 6.99293 8.07617 7.17709 7.85409 7.17709Z" fill="#292D32"/>
<path d="M7.85409 6.17709H5.14575V8.17709H7.85409V6.17709ZM5.14575 6.17709C5.47595 6.17709 5.7395 6.44064 5.7395 6.77084H3.7395C3.7395 7.54521 4.37138 8.17709 5.14575 8.17709V6.17709ZM5.7395 6.77084C5.7395 7.10104 5.47595 7.36459 5.14575 7.36459V5.36459C4.37138 5.36459 3.7395 5.99648 3.7395 6.77084H5.7395ZM5.14575 7.36459H7.85409V5.36459H5.14575V7.36459ZM7.85409 7.36459C7.52388 7.36459 7.26034 7.10104 7.26034 6.77084H9.26034C9.26034 5.99648 8.62845 5.36459 7.85409 5.36459V7.36459ZM7.26034 6.77084C7.26034 6.44064 7.52388 6.17709 7.85409 6.17709V8.17709C8.62845 8.17709 9.26034 7.54521 9.26034 6.77084H7.26034Z" fill="#FF6060" mask="url(#path-8-inside-4_135_222)"/>
</g>
</g>
</g>
</g>
</svg>
